<?xml version="1.0" encoding="UTF-8"?>
<svg version="1.1" xmlns="http://www.w3.org/2000/svg" width="512" height="512">
<path d="M0 0 C4.25118159 1.80356527 8.08520055 4.1247128 12 6.5625 C13.72263516 7.59608109 15.4452912 8.62962929 17.16918945 9.66110229 C18.94753186 10.72867859 20.72014767 11.80530177 22.4921875 12.88330078 C27.93885412 16.18502287 33.47397822 19.33363904 39 22.5 C41.16445852 23.74801133 43.32852003 24.99671148 45.4921875 26.24609375 C49.85065388 28.76069436 54.21012191 31.27354661 58.5703125 33.78515625 C72.08331972 41.57091599 85.57857931 49.38575616 99.03466797 57.26953125 C102.11206981 59.0654002 105.19803437 60.84589955 108.28515625 62.625 C110.29439243 63.79145724 112.30351144 64.95811634 114.3125 66.125 C115.24416992 66.65754395 116.17583984 67.19008789 117.13574219 67.73876953 C117.99458008 68.24005371 118.85341797 68.74133789 119.73828125 69.2578125 C120.49149658 69.6923877 121.24471191 70.12696289 122.02075195 70.57470703 C124.30234188 72.21772196 125.52233329 73.60125158 127 76 C127.36914349 78.66300583 127.36914349 78.66300583 127.36076355 81.75799561 C127.36694954 83.52059471 127.36694954 83.52059471 127.3732605 85.31880188 C127.36247467 86.60417343 127.35168884 87.88954498 127.34057617 89.21386719 C127.33972976 90.58389772 127.34020531 91.95392961 127.34190369 93.32395935 C127.34276454 97.04066538 127.32512441 100.75708105 127.30418181 104.4737196 C127.28542994 108.35878719 127.28366575 112.24386142 127.28010559 116.12896729 C127.27078073 123.48479469 127.24616103 130.84048836 127.21605712 138.19625688 C127.1825268 146.57102027 127.16603055 154.94579004 127.15097082 163.32060385 C127.11961182 180.54714659 127.0668428 197.77355916 127 215 C128.16640266 215.45792938 128.16640266 215.45792938 129.35636902 215.92510986 C131.93166765 216.97221633 134.25926469 218.17621708 136.67578125 219.546875 C137.57321045 220.05452393 138.47063965 220.56217285 139.39526367 221.08520508 C140.35795166 221.6345874 141.32063965 222.18396973 142.3125 222.75 C143.32868408 223.32709717 144.34486816 223.90419434 145.3918457 224.4987793 C153.51704339 229.12525525 161.5956416 233.82982144 169.66333008 238.55566406 C177.41247183 243.08986232 185.19931468 247.55540174 193 252 C204.84387984 258.75101558 216.64632982 265.56968814 228.3984375 272.47949219 C230.82987314 273.90056775 233.27183356 275.30111482 235.71875 276.6953125 C237.08345374 277.48416674 238.44804673 278.27321262 239.8125 279.0625 C240.95332031 279.71347656 242.09414063 280.36445313 243.26953125 281.03515625 C246.2794026 283.20105795 247.37981811 284.69359509 249 288 C249.37752342 290.89702606 249.37752342 290.89702606 249.38095093 294.14831543 C249.3894104 295.3848436 249.39786987 296.62137177 249.40658569 297.89537048 C249.40075334 299.25772227 249.39460887 300.62007275 249.38818359 301.98242188 C249.3922506 303.42330828 249.39759321 304.86419157 249.40411377 306.30506897 C249.41777795 310.21208674 249.41249251 314.11886657 249.40297651 318.02588844 C249.39537524 322.11683412 249.40242683 326.20775957 249.40713501 330.29870605 C249.4125912 337.16841281 249.40540455 344.03802278 249.39111328 350.90771484 C249.37478699 358.84725498 249.3800756 366.786564 249.3965925 374.72609854 C249.41021127 381.54577406 249.41212512 388.36538006 249.40427649 395.18506479 C249.39960211 399.25687352 249.39896862 403.32857364 249.40888596 407.40037537 C249.41755907 411.22866561 249.41152763 415.05665818 249.39420319 418.88491631 C249.39024016 420.28896529 249.39136928 421.69303937 249.39799118 423.09707832 C249.40620314 425.01527124 249.39407369 426.93351897 249.38095093 428.85168457 C249.37981985 429.92461006 249.37868877 430.99753555 249.37752342 432.10297394 C248.94327478 435.435296 247.96912732 437.300094 246 440 C243.68530273 441.70654297 243.68530273 441.70654297 240.93359375 443.2421875 C239.90411621 443.82556885 238.87463867 444.4089502 237.81396484 445.01000977 C236.69973145 445.62545654 235.58549805 446.24090332 234.4375 446.875 C233.26699461 447.5337506 232.09724737 448.19384996 230.92822266 448.85522461 C228.49820315 450.22858724 226.06502586 451.59608889 223.62939453 452.95947266 C218.01468325 456.10836825 212.44691623 459.33869722 206.875 462.5625 C205.79774658 463.18374756 204.72049316 463.80499512 203.6105957 464.44506836 C196.43407766 468.58435161 189.27605772 472.75442506 182.125 476.9375 C172.20467486 482.73774659 162.24984044 488.47665935 152.25317383 494.14428711 C146.7564962 497.26318819 141.28443511 500.41104517 135.875 503.6796875 C134.45803833 504.52442627 134.45803833 504.52442627 133.01245117 505.38623047 C131.27636067 506.42389736 129.54905591 507.47648534 127.83325195 508.54736328 C122.53934462 511.68567753 118.14427844 513.51290365 112 512 C107.467914 510.0114898 103.2829919 507.50522754 99.0625 504.9375 C97.82489586 504.20449039 96.58610288 503.47348466 95.34619141 502.74438477 C92.79873523 501.24351732 90.25732064 499.73313881 87.72021484 498.21484375 C82.14574148 494.88557169 76.50672337 491.66859108 70.875 488.4375 C68.72610979 487.19739872 66.57767226 485.95651269 64.4296875 484.71484375 C59.03792746 481.59929497 53.64460709 478.48646293 48.25048828 475.375 C46.0951069 474.13169753 43.93983227 472.88820997 41.78466797 471.64453125 C36.76285179 468.74665642 31.74041451 465.84987589 26.71557617 462.95724487 C24.94954478 461.94052802 23.18372569 460.92344342 21.41796875 459.90625 C19.21265845 458.63599127 17.00695784 457.36640982 14.80078125 456.09765625 C13.79402344 455.51757812 12.78726562 454.9375 11.75 454.33984375 C10.30173828 453.51202393 10.30173828 453.51202393 8.82421875 452.66748047 C6.9240591 451.54558468 5.05111064 450.37642044 3.20703125 449.16455078 C2.33433594 448.59591309 1.46164062 448.02727539 0.5625 447.44140625 C-0.19933594 446.92392822 -0.96117187 446.4064502 -1.74609375 445.87329102 C-4.00582358 444.74147739 -4.00582358 444.74147739 -6.45019531 445.66577148 C-7.71234863 446.3262146 -7.71234863 446.3262146 -9 447 C-9.85561523 447.44666016 -10.71123047 447.89332031 -11.59277344 448.35351562 C-12.96224121 449.12211914 -12.96224121 449.12211914 -14.359375 449.90625 C-15.38345459 450.47980225 -16.40753418 451.05335449 -17.46264648 451.64428711 C-18.54747314 452.25667236 -19.6322998 452.86905762 -20.75 453.5 C-21.87672119 454.13365479 -23.00344238 454.76730957 -24.16430664 455.42016602 C-30.95517743 459.25000564 -37.70984746 463.13335601 -44.4152832 467.1105957 C-50.72724541 470.85304673 -57.07942262 474.524023 -63.4375 478.1875 C-64.53964844 478.82260498 -65.64179688 479.45770996 -66.77734375 480.11206055 C-69.04285705 481.41718609 -71.30848334 482.72211555 -73.57421875 484.02685547 C-78.09384625 486.63002176 -82.61221334 489.23536449 -87.12939453 491.84277344 C-89.31897915 493.10513765 -91.51004126 494.3649429 -93.70263672 495.62207031 C-98.68708835 498.48403658 -103.64362944 501.37462089 -108.5390625 504.38671875 C-109.39314697 504.90459961 -110.24723145 505.42248047 -111.12719727 505.95605469 C-112.68729444 506.90509425 -114.23831543 507.86931857 -115.77709961 508.85253906 C-120.8461846 511.91200771 -125.10333121 513.30555088 -131 512 C-135.07406746 510.31226263 -138.78425282 508.13867967 -142.5625 505.875 C-143.65457764 505.24190918 -144.74665527 504.60881836 -145.87182617 503.95654297 C-149.25847439 501.98853028 -152.62943015 499.99539321 -156 498 C-157.99361616 496.8365251 -159.98836316 495.67498517 -161.984375 494.515625 C-165.91754537 492.2294265 -169.84508687 489.93395383 -173.76953125 487.6328125 C-180.48461491 483.70522324 -187.24064818 479.85061293 -194 476 C-203.75050456 470.44313366 -213.47885338 464.85056782 -223.15698242 459.16821289 C-228.32345205 456.1352757 -233.50683664 453.13882721 -238.72265625 450.19140625 C-239.82512695 449.56314941 -240.92759766 448.93489258 -242.06347656 448.28759766 C-244.17830433 447.08334722 -246.29851862 445.88849152 -248.42480469 444.70458984 C-249.37387695 444.16141113 -250.32294922 443.61823242 -251.30078125 443.05859375 C-252.13778564 442.58736084 -252.97479004 442.11612793 -253.8371582 441.63061523 C-256.46629969 439.64844614 -257.52910321 437.94585021 -259 435 C-259.38031673 432.10576725 -259.38031673 432.10576725 -259.38768005 428.8584137 C-259.39758469 427.62333069 -259.40748932 426.38824768 -259.41769409 425.11573792 C-259.41345636 423.75497337 -259.40889853 422.39420978 -259.40405273 421.03344727 C-259.40975769 419.59418203 -259.41672244 418.15492132 -259.42485046 416.71566772 C-259.44278348 412.81272753 -259.44161325 408.91001214 -259.43590808 405.00704312 C-259.43281636 401.74659068 -259.4389085 398.48618142 -259.44494683 395.22573513 C-259.45899096 387.5328591 -259.45743177 379.84009412 -259.44604492 372.1472168 C-259.434564 364.21560042 -259.44863903 356.28432218 -259.4754414 348.35275036 C-259.49760558 341.53815061 -259.50423416 334.72365694 -259.49836498 327.9090237 C-259.49499587 323.84105166 -259.49740726 319.77329636 -259.51461601 315.70535469 C-259.53009464 311.87946018 -259.52611992 308.05406617 -259.50731087 304.22819138 C-259.50362745 302.82617093 -259.50672636 301.42411334 -259.51719666 300.02212715 C-259.60811769 286.8385648 -259.60811769 286.8385648 -255 282 C-252.38818359 280.08813477 -252.38818359 280.08813477 -249.3984375 278.44140625 C-248.28194824 277.81613037 -247.16545898 277.19085449 -246.01513672 276.54663086 C-244.80180157 275.88517363 -243.58842148 275.22379885 -242.375 274.5625 C-241.11256691 273.86038007 -239.85102351 273.15665831 -238.59033203 272.45141602 C-235.99675826 271.00162392 -233.39994137 269.55791461 -230.80078125 268.11816406 C-225.11834027 264.9617715 -219.49811117 261.6980427 -213.875 258.4375 C-211.72673638 257.19631358 -209.57829871 255.95542837 -207.4296875 254.71484375 C-206.36975586 254.10237793 -205.30982422 253.48991211 -204.21777344 252.85888672 C-199.89638733 250.36245016 -195.57349943 247.86862118 -191.25048828 245.375 C-189.0951069 244.13169753 -186.93983227 242.88820997 -184.78466797 241.64453125 C-179.76285179 238.74665642 -174.74041451 235.84987589 -169.71557617 232.95724487 C-167.94954478 231.94052802 -166.18372569 230.92344342 -164.41796875 229.90625 C-162.21265845 228.63599127 -160.00695784 227.36640982 -157.80078125 226.09765625 C-152.13585991 222.83361706 -146.51676466 219.51571108 -140.9609375 216.06860352 C-139 215 -139 215 -137 215 C-137.00368717 214.28824018 -137.00737434 213.57648035 -137.01117325 212.84315205 C-137.09950736 195.52514492 -137.16570131 178.20719501 -137.20724869 160.88901234 C-137.2278747 152.51406069 -137.25599595 144.13925942 -137.30175781 135.7644043 C-137.3416245 128.46494293 -137.36743253 121.16559046 -137.37635398 113.86602324 C-137.38156906 110.00083955 -137.39382684 106.13596741 -137.42292023 102.27088356 C-137.45008693 98.63225277 -137.45844263 94.99406163 -137.45243073 91.35533905 C-137.45405445 89.38457633 -137.47557075 87.41386141 -137.49768066 85.44322205 C-137.49218201 84.26678131 -137.48668335 83.09034058 -137.48101807 81.87825012 C-137.48470524 80.85782529 -137.48839241 79.83740046 -137.49219131 78.78605366 C-136.72640676 74.45132284 -134.34803812 71.94956239 -130.81542969 69.46118164 C-130.02555664 69.03184326 -129.23568359 68.60250488 -128.421875 68.16015625 C-127.52106201 67.66209473 -126.62024902 67.1640332 -125.69213867 66.65087891 C-124.72123291 66.12671387 -123.75032715 65.60254883 -122.75 65.0625 C-120.65667007 63.90654372 -118.56424939 62.74893962 -116.47265625 61.58984375 C-114.86028076 60.70014893 -114.86028076 60.70014893 -113.21533203 59.79248047 C-108.16329367 56.97607457 -103.17528726 54.05324436 -98.1875 51.125 C-89.84921581 46.24299237 -81.49634715 41.38761228 -73.125 36.5625 C-72.04645752 35.94076904 -70.96791504 35.31903809 -69.85668945 34.6784668 C-65.47454164 32.15307831 -61.09174963 29.62880891 -56.70898438 27.10449219 C-54.51906314 25.84297784 -52.32944671 24.58093422 -50.14013672 23.31835938 C-47.9766816 22.07211605 -45.81165856 20.82859035 -43.64501953 19.58789062 C-38.17545756 16.44818763 -32.7527409 13.25293457 -27.3828125 9.9453125 C-26.31047363 9.29377197 -25.23813477 8.64223145 -24.13330078 7.97094727 C-22.10745308 6.73703333 -20.09190696 5.48597289 -18.08935547 4.21459961 C-12.05071846 0.5624294 -7.07572093 -1.68797692 0 0 Z M-12.1640625 25.75390625 C-13.70320313 26.65302734 -13.70320313 26.65302734 -15.2734375 27.5703125 C-16.37945312 28.22773438 -17.48546875 28.88515625 -18.625 29.5625 C-19.7911293 30.24701002 -20.9578057 30.93058879 -22.125 31.61328125 C-24.55064254 33.03301526 -26.97387561 34.45673795 -29.39550781 35.88330078 C-34.9085479 39.12653707 -40.45590582 42.31025298 -46 45.5 C-48.15771225 46.74451401 -50.31526365 47.98930695 -52.47265625 49.234375 C-58.01859426 52.4339867 -63.56494393 55.63288398 -69.11157227 58.83129883 C-71.30388927 60.09602902 -73.49579379 61.36147454 -75.68725586 62.62768555 C-80.72396402 65.53756876 -85.7648082 68.43928295 -90.8203125 71.31640625 C-91.71049072 71.82526367 -92.60066895 72.33412109 -93.51782227 72.85839844 C-95.16947813 73.80220179 -96.82348652 74.74190449 -98.48022461 75.67675781 C-102.37579768 77.67854068 -102.37579768 77.67854068 -105 81 C-104.27522461 81.41773682 -103.55044922 81.83547363 -102.80371094 82.26586914 C-100.05259232 83.85172315 -97.30163618 85.43785856 -94.55078125 87.02416992 C-92.79959985 88.03390074 -91.04824002 89.04332207 -89.296875 90.05273438 C-88.1625 90.70693359 -87.028125 91.36113281 -85.859375 92.03515625 C-84.71919922 92.68629395 -83.57902344 93.33743164 -82.40429688 94.00830078 C-80.133851 95.33663537 -77.88950217 96.71060776 -75.67382812 98.12841797 C-74.63162109 98.78600098 -73.58941406 99.44358398 -72.515625 100.12109375 C-71.59555664 100.72236084 -70.67548828 101.32362793 -69.72753906 101.94311523 C-66.99893814 103.28599715 -66.99893814 103.28599715 -63.99023438 102.36425781 C-61.10496092 101.04788714 -58.37718368 99.65303685 -55.640625 98.05078125 C-54.62097656 97.4578125 -53.60132813 96.86484375 -52.55078125 96.25390625 C-51.46152344 95.61324219 -50.37226563 94.97257812 -49.25 94.3125 C-48.09279028 93.63743361 -46.93523143 92.96296538 -45.77734375 92.2890625 C-43.37429418 90.88984195 -40.9727608 89.48807065 -38.57226562 88.08447266 C-33.06213148 84.86550612 -27.52989072 81.68485972 -22 78.5 C-19.8449627 77.25666533 -17.69001517 76.01317505 -15.53515625 74.76953125 C-11.08577193 72.20245003 -6.63509472 69.63762768 -2.18359375 67.07421875 C9.91186046 60.10677118 21.98785531 53.11025277 34 46 C30.89850009 42.58971931 27.66839138 40.46989038 23.66015625 38.21484375 C23.05618515 37.87248184 22.45221405 37.53011993 21.8299408 37.17738342 C19.91087081 36.09124511 17.98689618 35.01416794 16.0625 33.9375 C14.14287835 32.85522431 12.22429071 31.77113226 10.30577087 30.68690491 C8.56361942 29.70368094 6.81910424 28.72464868 5.07446289 27.74584961 C3.13238245 26.64302922 1.21709498 25.49028009 -0.65454102 24.27172852 C-5.22119639 21.79564775 -8.0561726 23.32898285 -12.1640625 25.75390625 Z M49.2734375 60.53515625 C48.33773926 61.08937256 47.40204102 61.64358887 46.43798828 62.21459961 C45.42720215 62.82440674 44.41641602 63.43421387 43.375 64.0625 C41.19315569 65.35752483 39.01084834 66.6517698 36.828125 67.9453125 C35.69955078 68.61723633 34.57097656 69.28916016 33.40820312 69.98144531 C28.0073345 73.18018326 22.56654568 76.30863188 17.125 79.4375 C14.9452568 80.69391378 12.76556964 81.95042481 10.5859375 83.20703125 C6.17546247 85.74780565 1.763742 88.28640567 -2.6484375 90.82421875 C-16.48821599 98.78973485 -30.27400167 106.83989191 -44 115 C-41.36988803 118.00180833 -38.28283734 119.69912563 -34.828125 121.65234375 C-33.92716095 122.16445152 -33.92716095 122.16445152 -33.00799561 122.68690491 C-31.09122576 123.77503262 -29.1707237 124.85636975 -27.25 125.9375 C-25.97370317 126.66035695 -24.69765883 127.3836599 -23.421875 128.10742188 C-21.05525494 129.44931926 -18.68695894 130.78806751 -16.31738281 132.12475586 C-14.59469548 133.09855343 -12.87456906 134.08504686 -11.23669434 135.19558716 C-8.14196238 137.22205634 -6.60389742 138.11010626 -2.89746094 137.43432617 C-0.0882048 136.0436639 2.65398213 134.63478927 5.359375 133.05078125 C6.37918457 132.45773193 7.39899414 131.86468262 8.44970703 131.25366211 C9.53880371 130.61307861 10.62790039 129.97249512 11.75 129.3125 C12.9057488 128.63817285 14.06184266 127.96443682 15.21826172 127.29125977 C17.61980548 125.89270204 20.01984804 124.49161706 22.41894531 123.08886719 C27.97231876 119.84524085 33.55062527 116.644842 39.125 113.4375 C48.56761891 107.99412464 57.98990403 102.51667516 67.40087891 97.01879883 C76.58580759 91.65359741 85.7899107 86.32186764 95 81 C92.08163502 77.82750773 89.19638891 75.78791514 85.421875 73.72265625 C83.80345703 72.82836914 83.80345703 72.82836914 82.15234375 71.91601562 C81.02957031 71.30435547 79.90679687 70.69269531 78.75 70.0625 C76.53542493 68.84693289 74.32186049 67.62952251 72.109375 66.41015625 C71.05814453 65.83281738 70.00691406 65.25547852 68.92382812 64.66064453 C65.74771042 62.85670727 62.69945959 60.91730653 59.69238281 58.84545898 C55.62197936 56.81201883 52.7942585 58.42425678 49.2734375 60.53515625 Z M-116 99 C-116.56279637 113.880206 -116.98486046 128.7595852 -117.24349213 143.64819527 C-117.36683519 150.56353242 -117.5346017 157.47223092 -117.81054688 164.38330078 C-118.07711069 171.06264926 -118.21503662 177.73371581 -118.27705383 184.4186058 C-118.3211898 186.95918833 -118.4074104 189.49941965 -118.53752136 192.03705215 C-119.21123159 203.82883533 -119.21123159 203.82883533 -116 215 C-110.11206016 221.08167571 -102.47857577 224.50887389 -94.7881546 227.78489685 C-91.29045239 229.3092273 -88.13554088 231.13318912 -84.8828125 233.12109375 C-82.96387223 234.22713621 -81.04460974 235.33261985 -79.125 236.4375 C-78.06313477 237.04964355 -77.00126953 237.66178711 -75.90722656 238.29248047 C-70.39036136 241.47266695 -64.87144509 244.64927307 -59.3515625 247.82421875 C-57.15094406 249.09097628 -54.95042238 250.35790193 -52.75 251.625 C-51.15212646 252.54442383 -51.15212646 252.54442383 -49.52197266 253.48242188 C-44.17630931 256.56510681 -38.84835671 259.67389051 -33.546875 262.83203125 C-32.01788574 263.74251221 -32.01788574 263.74251221 -30.45800781 264.67138672 C-28.52780456 265.82383722 -26.59995149 266.98023579 -24.67480469 268.14111328 C-23.82305664 268.65013184 -22.97130859 269.15915039 -22.09375 269.68359375 C-21.34802734 270.13275146 -20.60230469 270.58190918 -19.83398438 271.04467773 C-18.04901717 272.15399362 -18.04901717 272.15399362 -16 272 C-16 233.72 -16 195.44 -16 156 C-25.24 150.72 -34.48 145.44 -44 140 C-51.58593814 135.62905469 -59.17096552 131.25679598 -66.75146484 126.87646484 C-70.07960554 124.95401712 -73.40877192 123.03335754 -76.73828125 121.11328125 C-77.85001709 120.47213379 -78.96175293 119.83098633 -80.10717773 119.17041016 C-82.30059913 117.905587 -84.49411879 116.64093423 -86.68774414 115.37646484 C-91.73729393 112.46453066 -96.78339984 109.5470287 -101.8203125 106.61328125 C-102.71049072 106.09540039 -103.60066895 105.57751953 -104.51782227 105.04394531 C-106.17304482 104.08031771 -107.82723681 103.11491699 -109.48022461 102.14746094 C-112.56172917 99.98881529 -112.56172917 99.98881529 -116 99 Z M99.69140625 101.97265625 C98.56524902 102.61726807 97.4390918 103.26187988 96.27880859 103.92602539 C95.03999768 104.63811161 93.80122929 105.3502718 92.5625 106.0625 C91.28735564 106.79368405 90.0121267 107.52472063 88.73681641 108.25561523 C77.22754194 114.85534473 65.73585208 121.48568059 54.24853516 128.12353516 C50.92039446 130.04598288 47.59122808 131.96664246 44.26171875 133.88671875 C43.13975098 134.53374756 42.0177832 135.18077637 40.86181641 135.84741211 C38.7716812 137.05271207 36.68151569 138.25795948 34.59130859 139.46313477 C32.62683703 140.59625958 30.6764915 141.75425858 28.74169922 142.93734741 C25.99441588 144.54335748 23.23271606 145.71595102 20.2616272 146.85023499 C10.87256953 150.75963064 10.87256953 150.75963064 4.93636131 158.58055496 C3.27935273 166.44825039 3.82261069 174.46751243 4.14453125 182.44921875 C4.18000506 185.03414504 4.20703373 187.6191998 4.22599792 190.20429993 C4.29090964 196.29186606 4.44025725 202.37186405 4.63163823 208.45659047 C4.84489848 215.38927352 4.94868504 222.32229139 5.04385149 229.25744379 C5.24183349 243.50847708 5.57544974 257.75400461 6 272 C9.76716237 270.53028926 13.19053264 268.8497922 16.69921875 266.83203125 C17.81248535 266.19386475 18.92575195 265.55569824 20.07275391 264.89819336 C21.27771682 264.20304466 22.4826309 263.5078113 23.6875 262.8125 C24.94434799 262.09031382 26.20134912 261.3683941 27.45849609 260.64672852 C30.68637148 258.79256933 33.91189349 256.93436047 37.13653564 255.07458496 C39.99525204 253.42607817 42.85518454 251.77968312 45.71484375 250.1328125 C49.98733279 247.67082627 54.25796732 245.20566082 58.52734375 242.73828125 C62.97493793 240.16806351 67.42574159 237.60352272 71.87890625 235.04296875 C73.0189209 234.3869165 74.15893555 233.73086426 75.33349609 233.05493164 C77.47514647 231.82260188 79.61734415 230.59122247 81.76025391 229.36108398 C83.71629549 228.23477697 85.65769897 227.082533 87.58105469 225.90127563 C90.10441406 224.49803538 92.1710799 223.53752909 94.83895874 222.59947205 C99.2864146 220.84129907 103.08334887 218.8924912 106 215 C108.80359844 206.7218186 107.73741925 197.342879 107.46484375 188.74609375 C107.43684717 186.15827085 107.41550452 183.57036814 107.40052795 180.98243713 C107.34923073 174.8819575 107.23122357 168.78616615 107.08028561 162.68744761 C106.91210692 155.73994473 106.8300273 148.79223784 106.75485408 141.84320343 C106.59842793 127.5599552 106.33492353 113.28012254 106 99 C103.83741809 99 101.47484157 100.94984369 99.69140625 101.97265625 Z M-135.98999023 236.94116211 C-137.02454346 237.62057861 -138.05909668 238.29999512 -139.125 239 C-140.22465088 239.66974854 -141.32430176 240.33949707 -142.45727539 241.02954102 C-144.66056871 242.37493194 -146.8527585 243.7386979 -149.03271484 245.12158203 C-152.14634912 247.09264523 -155.30233987 248.96621776 -158.49145508 250.8112793 C-160.49257197 251.96937141 -162.48118783 253.14693844 -164.46875 254.328125 C-170.09867899 257.66001934 -175.7692094 260.92144516 -181.4375 264.1875 C-182.52949707 264.8168042 -183.62149414 265.4461084 -184.74658203 266.09448242 C-187.5784637 267.72597763 -190.41058724 269.357052 -193.24279785 270.98797607 C-198.02764783 273.74371062 -202.81140171 276.50134621 -207.59475708 279.25967407 C-209.27510353 280.22843991 -210.95578529 281.19662406 -212.63647461 282.16479492 C-213.6600708 282.75494385 -214.68366699 283.34509277 -215.73828125 283.953125 C-216.63587158 284.47036133 -217.53346191 284.98759766 -218.45825195 285.52050781 C-220.98578745 286.9917272 -223.4957655 288.48951829 -226 290 C-224.70703926 293.87888221 -223.39447457 294.18088697 -219.85546875 296.109375 C-218.78490234 296.69976562 -217.71433594 297.29015625 -216.61132812 297.8984375 C-215.48146484 298.50945312 -214.35160156 299.12046875 -213.1875 299.75 C-210.99288836 300.95202795 -208.79887629 302.15515125 -206.60546875 303.359375 C-204.965177 304.24508179 -204.965177 304.24508179 -203.29174805 305.14868164 C-201.0673597 306.39970418 -198.88050272 307.7195274 -196.73364258 309.09936523 C-190.99608892 313.06237384 -190.99608892 313.06237384 -184.36328125 313.50390625 C-183.35652344 312.86324219 -182.34976563 312.22257812 -181.3125 311.5625 C-180.7340332 311.21703125 -180.15556641 310.8715625 -179.55957031 310.515625 C-178.31699688 309.76783493 -177.08769003 308.99762082 -175.87158203 308.20751953 C-174.02502461 307.01614554 -172.15084844 305.90411005 -170.24609375 304.80859375 C-167.45563293 303.20154389 -164.68200209 301.57007651 -161.91796875 299.91796875 C-156.16636879 296.49130628 -150.36441918 293.153025 -144.5625 289.8125 C-143.46268799 289.17868408 -142.36287598 288.54486816 -141.22973633 287.8918457 C-136.67555936 285.26768924 -132.12046136 282.64513343 -127.56542969 280.02246094 C-121.01945072 276.25277028 -114.47672416 272.4775531 -107.93798828 268.6953125 C-105.15925484 267.0918951 -102.37517727 265.49816527 -99.58984375 263.90625 C-98.01803966 263.00032871 -96.4464111 262.09410279 -94.875 261.1875 C-94.16400146 260.78490967 -93.45300293 260.38231934 -92.72045898 259.9675293 C-91.11305967 259.03447159 -89.55007797 258.02546941 -88 257 C-88 256.34 -88 255.68 -88 255 C-91.78538159 252.82976084 -95.57163665 250.66105526 -99.35864258 248.49365234 C-100.64175021 247.75902793 -101.92463503 247.02401419 -103.20727539 246.28857422 C-103.82530029 245.93424316 -104.4433252 245.57991211 -105.08007812 245.21484375 C-105.69510193 244.86166077 -106.31012573 244.50847778 -106.94378662 244.14459229 C-108.18289494 243.43818855 -109.42581669 242.73843288 -110.67242432 242.04534912 C-113.54509655 240.44421719 -116.25059895 238.82365874 -118.94628906 236.92675781 C-125.74145971 232.35670602 -129.00672934 232.77561983 -135.98999023 236.94116211 Z M113.34472656 233.79833984 C112.45237305 234.34699707 111.56001953 234.8956543 110.640625 235.4609375 C109.62097656 236.07001953 108.60132813 236.67910156 107.55078125 237.30664062 C106.46152344 237.98919922 105.37226563 238.67175781 104.25 239.375 C103.09398642 240.07481339 101.93640285 240.77203923 100.77734375 241.46679688 C98.36943193 242.91288362 95.96867492 244.36989772 93.57226562 245.83496094 C88.10947244 249.16208359 82.5505768 252.32238252 77 255.5 C74.83937948 256.74528857 72.67922487 257.99138586 70.51953125 259.23828125 C68.91198975 260.16568115 68.91198975 260.16568115 67.27197266 261.11181641 C63.955618 263.02561188 60.63985279 264.94042512 57.32421875 266.85546875 C43.90293385 274.60577436 30.46499442 282.32586445 17 290 C17 290.66 17 291.32 17 292 C17.79583496 292.4532666 18.59166992 292.9065332 19.41162109 293.37353516 C22.41278907 295.08356885 25.41336742 296.79462857 28.41357422 298.50634766 C29.70305919 299.24177461 30.99276634 299.97681216 32.28271484 300.71142578 C33.53579377 301.42510632 34.78850225 302.13943771 36.04083252 302.85443115 C37.27690694 303.55952358 38.51417001 304.26253641 39.75262451 304.96343994 C44.24202292 307.51771382 48.5746609 310.26310048 52.83837891 313.17724609 C55.0225135 314.25230446 55.0225135 314.25230446 57.43994141 313.32861328 C60.10067813 311.9477503 62.74499023 310.56105384 65.359375 309.09375 C66.38345459 308.52019775 67.40753418 307.94664551 68.46264648 307.35571289 C69.54747314 306.74332764 70.6322998 306.13094238 71.75 305.5 C72.87672119 304.86634521 74.00344238 304.23269043 75.16430664 303.57983398 C81.95517743 299.74999436 88.70984746 295.86664399 95.4152832 291.8894043 C101.72724906 288.14695112 108.07958148 284.47625816 114.4375 280.8125 C115.52732178 280.1839209 116.61714355 279.5553418 117.73999023 278.90771484 C122.99992586 275.87542195 128.26249974 272.84792631 133.5315094 269.83143616 C135.94180261 268.45106844 138.350749 267.06836046 140.759552 265.68539429 C142.47174672 264.70369916 144.18593116 263.72547696 145.90014648 262.74731445 C147.45004272 261.85725708 147.45004272 261.85725708 149.03125 260.94921875 C149.94455078 260.42674561 150.85785156 259.90427246 151.79882812 259.3659668 C154.09524595 258.05673618 154.09524595 258.05673618 156 256 C149.01825221 251.1406498 141.74901783 246.93314885 134.3125 242.8125 C133.21099609 242.19697266 132.10949219 241.58144531 130.97460938 240.94726562 C127.9898266 239.28464975 125.00604908 237.62386227 122 236 C120.50327759 235.08408081 120.50327759 235.08408081 118.97631836 234.1496582 C116.07817946 232.68037638 116.07817946 232.68037638 113.34472656 233.79833984 Z M173.12109375 269.07421875 C171.86354788 269.90188665 170.63674603 270.7774095 169.4375 271.6875 C167.96874182 272.67055638 166.49719681 273.6494571 165.0234375 274.625 C163.82799316 275.44291016 163.82799316 275.44291016 162.60839844 276.27734375 C157.73953744 279.49287007 152.63350898 282.30608227 147.5625 285.1875 C145.31303169 286.48173484 143.06434315 287.77732586 140.81640625 289.07421875 C139.68734863 289.72438965 138.55829102 290.37456055 137.39501953 291.04443359 C134.08420715 292.95149581 130.77430739 294.86012956 127.46484375 296.76953125 C125.86104858 297.69475586 125.86104858 297.69475586 124.22485352 298.63867188 C122.08299084 299.87491694 119.94154859 301.11189072 117.80053711 302.34960938 C112.72924897 305.27984103 107.65363368 308.2016319 102.56085205 311.09432983 C100.15850054 312.45953665 97.75884109 313.82943671 95.359375 315.19970703 C93.66666782 316.16376858 91.97009646 317.12103533 90.2734375 318.078125 C88.73429687 318.95791016 88.73429687 318.95791016 87.1640625 319.85546875 C85.80982178 320.62346802 85.80982178 320.62346802 84.42822266 321.40698242 C81.93978429 323.03950407 80.02206931 324.8257604 78 327 C79.5858659 327.9272058 81.17182393 328.85425404 82.7578125 329.78125 C83.76996826 330.37292969 84.78212402 330.96460938 85.82495117 331.57421875 C88.02935609 332.86062446 90.23525685 334.14447023 92.44262695 335.42578125 C101.89268762 340.91241761 101.89268762 340.91241761 106.53515625 343.78125 C107.48334229 344.35649414 107.48334229 344.35649414 108.45068359 344.94335938 C110.0719554 345.92970522 111.68289624 346.93297677 113.29296875 347.9375 C115.92701062 349.30237103 115.92701062 349.30237103 118.37695312 348.22558594 C120.87742568 347.05727132 123.27545235 345.81460122 125.67578125 344.453125 C126.57337158 343.94539551 127.47096191 343.43766602 128.39575195 342.91455078 C129.83954224 342.09059814 129.83954224 342.09059814 131.3125 341.25 C132.32723389 340.67362793 133.34196777 340.09725586 134.38745117 339.50341797 C142.55774411 334.85065445 150.68567199 330.12650952 158.79956055 325.3762207 C165.1275366 321.67157866 171.46972178 317.99303094 177.82543945 314.33618164 C182.15094537 311.84713543 186.4725328 309.35135008 190.79296875 306.85351562 C192.95615229 305.60329566 195.12023604 304.35463215 197.28515625 303.10742188 C200.40294016 301.30841178 203.51470486 299.49941887 206.625 297.6875 C207.57391113 297.142146 208.52282227 296.59679199 209.50048828 296.03491211 C210.35884277 295.5322583 211.21719727 295.02960449 212.1015625 294.51171875 C212.85775879 294.07303467 213.61395508 293.63435059 214.39306641 293.18237305 C214.92335449 292.79218994 215.45364258 292.40200684 216 292 C216 291.34 216 290.68 216 290 C212.21461841 287.82976084 208.42836335 285.66105526 204.64135742 283.49365234 C203.35824979 282.75902793 202.07536497 282.02401419 200.79272461 281.28857422 C200.17469971 280.93424316 199.5566748 280.57991211 198.91992188 280.21484375 C198.30453049 279.86184708 197.6891391 279.5088504 197.05509949 279.14515686 C195.8183403 278.43929293 194.57916143 277.73765173 193.33760071 277.04026794 C190.46795904 275.42784445 187.66645368 273.78613718 184.89331055 272.00805664 C179.32073707 268.24725104 179.32073707 268.24725104 173.12109375 269.07421875 Z M-72.7265625 271.53515625 C-73.66226074 272.08937256 -74.59795898 272.64358887 -75.56201172 273.21459961 C-76.57279785 273.82440674 -77.58358398 274.43421387 -78.625 275.0625 C-80.80684431 276.35752483 -82.98915166 277.6517698 -85.171875 278.9453125 C-86.30044922 279.61723633 -87.42902344 280.28916016 -88.59179688 280.98144531 C-93.9926655 284.18018326 -99.43345432 287.30863188 -104.875 290.4375 C-107.0547432 291.69391378 -109.23443036 292.95042481 -111.4140625 294.20703125 C-115.82453753 296.74780565 -120.236258 299.28640567 -124.6484375 301.82421875 C-138.48821599 309.78973485 -152.27400167 317.83989191 -166 326 C-162.60223877 328.84326145 -159.20373556 331.14317462 -155.32421875 333.27734375 C-154.24849609 333.87353516 -153.17277344 334.46972656 -152.06445312 335.08398438 C-150.95005859 335.69564453 -149.83566406 336.30730469 -148.6875 336.9375 C-146.48201497 338.15303032 -144.27756448 339.37043988 -142.07421875 340.58984375 C-141.02669434 341.16460449 -139.97916992 341.73936523 -138.89990234 342.33154297 C-136.35113768 343.79797315 -133.98605932 345.3792988 -131.58203125 347.06640625 C-128.93552793 348.71529987 -128.37547964 349.04034079 -125.1640625 348.6953125 C-120.49848269 346.19548332 -115.91913496 343.58960088 -111.375 340.875 C-109.21686539 339.60034343 -107.05798044 338.3269566 -104.8984375 337.0546875 C-103.20605957 336.05646973 -103.20605957 336.05646973 -101.47949219 335.03808594 C-96.2701393 331.97765978 -91.01764632 328.99276857 -85.76638794 326.0050354 C-75.30692382 320.05383325 -64.87912411 314.05111015 -54.49804688 307.96386719 C-49.77724329 305.19644431 -45.04708825 302.45006641 -40.28515625 299.75390625 C-39.3919165 299.24577393 -38.49867676 298.7376416 -37.57836914 298.21411133 C-35.90008576 297.26110826 -34.21843214 296.31400811 -32.53295898 295.3737793 C-30.65581734 294.30487148 -28.82207681 293.16028476 -27 292 C-27 291.34 -27 290.68 -27 290 C-28.61841797 289.10861328 -28.61841797 289.10861328 -30.26953125 288.19921875 C-31.78403276 287.36230228 -33.29834007 286.5250343 -34.8125 285.6875 C-36.01156982 285.02548584 -36.01156982 285.02548584 -37.23486328 284.35009766 C-41.61939885 281.91784411 -45.97167882 279.44312023 -50.28515625 276.88671875 C-51.13682373 276.38374268 -51.98849121 275.8807666 -52.8659668 275.36254883 C-54.5163513 274.38407332 -56.16250177 273.3984146 -57.80395508 272.4050293 C-58.55700928 271.9594165 -59.31006348 271.51380371 -60.0859375 271.0546875 C-60.7464209 270.65749512 -61.4069043 270.26030273 -62.08740234 269.85107422 C-66.33997787 267.95874868 -69.05490282 269.33382183 -72.7265625 271.53515625 Z M-238 310 C-238 348.28 -238 386.56 -238 426 C-230.41 430.29 -222.82 434.58 -215 439 C-211.05476393 441.28051034 -207.11502296 443.56493281 -203.1875 445.875 C-193.78081837 451.38334017 -184.35273864 456.85309148 -174.9050293 462.29077148 C-169.76359634 465.25014544 -164.62530597 468.21443341 -159.50021362 471.20201111 C-157.08387745 472.61028284 -154.66574595 474.01545573 -152.24749756 475.42044067 C-150.5293002 476.42044702 -148.81369781 477.42490775 -147.09814453 478.42944336 C-145.54909424 479.3286853 -145.54909424 479.3286853 -143.96875 480.24609375 C-143.05544922 480.77904053 -142.14214844 481.3119873 -141.20117188 481.86108398 C-139.11700889 483.15318117 -139.11700889 483.15318117 -137 483 C-136.78960888 468.10983807 -136.63097892 453.21979143 -136.53369045 438.32845879 C-136.48731297 431.41377913 -136.424107 424.50002378 -136.32104492 417.5859375 C-136.2216383 410.91389383 -136.1694494 404.24300875 -136.14610481 397.57019424 C-136.12946838 395.02394617 -136.09698018 392.47775099 -136.04842949 389.93191147 C-135.98312782 386.36604848 -135.97409607 382.80415719 -135.97827148 379.23779297 C-135.92973526 377.65714806 -135.92973526 377.65714806 -135.88021851 376.04457092 C-135.91115031 370.47466411 -135.91115031 370.47466411 -138.95551491 366.04446411 C-141.24537922 364.49699155 -143.52298024 363.22011892 -146 362 C-147.64452148 361.01435059 -147.64452148 361.01435059 -149.32226562 360.00878906 C-150.33998047 359.43354492 -151.35769531 358.85830078 -152.40625 358.265625 C-152.96929337 357.945867 -153.53233673 357.62610901 -154.11244202 357.29666138 C-155.29926183 356.623006 -156.48689759 355.95078621 -157.67532349 355.27996826 C-160.78604774 353.52406949 -163.89084649 351.7577484 -166.99609375 349.9921875 C-167.60525131 349.64616486 -168.21440887 349.30014221 -168.84202576 348.94363403 C-174.40176992 345.78134406 -179.92020378 342.5522923 -185.41015625 339.27050781 C-188.96918008 337.15343497 -192.56903841 335.13568548 -196.2109375 333.1640625 C-202.23345278 329.89689573 -208.15160439 326.46409493 -214.0625 323 C-215.07376953 322.40960938 -216.08503906 321.81921875 -217.12695312 321.2109375 C-222.80374036 317.89186293 -228.44610078 314.52878165 -234.03686523 311.06640625 C-235.92056013 309.84088819 -235.92056013 309.84088819 -238 310 Z M6 310 C5.43720363 324.880206 5.01513954 339.7595852 4.75650787 354.64819527 C4.63316481 361.56353242 4.4653983 368.47223092 4.18945312 375.38330078 C3.92288931 382.06264926 3.78496338 388.73371581 3.72294617 395.4186058 C3.6788102 397.95918833 3.5925896 400.49941965 3.46247864 403.03705215 C2.78876841 414.82883533 2.78876841 414.82883533 6 426 C11.88793984 432.08167571 19.52142423 435.50887389 27.2118454 438.78489685 C30.70954761 440.3092273 33.86445912 442.13318912 37.1171875 444.12109375 C39.03612777 445.22713621 40.95539026 446.33261985 42.875 447.4375 C43.93686523 448.04964355 44.99873047 448.66178711 46.09277344 449.29248047 C51.60963864 452.47266695 57.12855491 455.64927307 62.6484375 458.82421875 C64.84905594 460.09097628 67.04957762 461.35790193 69.25 462.625 C70.84787354 463.54442383 70.84787354 463.54442383 72.47802734 464.48242188 C77.82369069 467.56510681 83.15164329 470.67389051 88.453125 473.83203125 C89.98211426 474.74251221 89.98211426 474.74251221 91.54199219 475.67138672 C93.47219544 476.82383722 95.40004851 477.98023579 97.32519531 479.14111328 C98.17694336 479.65013184 99.02869141 480.15915039 99.90625 480.68359375 C100.65197266 481.13275146 101.39769531 481.58190918 102.16601562 482.04467773 C103.95098283 483.15399362 103.95098283 483.15399362 106 483 C106 444.72 106 406.44 106 367 C96.76 361.72 87.52 356.44 78 351 C70.41406186 346.62905469 62.82903448 342.25679598 55.24853516 337.87646484 C51.92039446 335.95401712 48.59122808 334.03335754 45.26171875 332.11328125 C44.14998291 331.47213379 43.03824707 330.83098633 41.89282227 330.17041016 C39.69940087 328.905587 37.50588121 327.64093423 35.31225586 326.37646484 C30.26270607 323.46453066 25.21660016 320.5470287 20.1796875 317.61328125 C19.28950928 317.09540039 18.39933105 316.57751953 17.48217773 316.04394531 C15.82695518 315.08031771 14.17276319 314.11491699 12.51977539 313.14746094 C9.43827083 310.98881529 9.43827083 310.98881529 6 310 Z M220.9609375 312.7890625 C219.91824707 313.39355225 218.87555664 313.99804199 217.80126953 314.62084961 C216.67060059 315.28221924 215.53993164 315.94358887 214.375 316.625 C213.19276682 317.31231105 212.01030929 317.99923631 210.82763672 318.68579102 C207.21505681 320.7847749 203.60710272 322.89162127 200 325 C198.4521582 325.90419678 198.4521582 325.90419678 196.87304688 326.82666016 C195.89916016 327.39562012 194.92527344 327.96458008 193.921875 328.55078125 C192.96200684 329.11152344 192.00213867 329.67226563 191.01318359 330.25 C189.07307991 331.38355846 187.13330598 332.51768147 185.19384766 333.65234375 C178.00753624 337.84955428 170.78606932 341.98293825 163.55307007 346.09887695 C154.42267438 351.29496423 145.32145444 356.53245721 136.3125 361.9375 C135.47493164 362.43975098 134.63736328 362.94200195 133.77441406 363.45947266 C130.19041166 365.46760955 130.19041166 365.46760955 127 368 C126.90428029 369.49283798 126.87811773 370.99019655 126.87974548 372.48609924 C126.87837082 373.45510162 126.87699615 374.424104 126.87557983 375.42247009 C126.87917511 376.49420975 126.88277039 377.5659494 126.88647461 378.67016602 C126.88632858 379.79197266 126.88618256 380.9137793 126.8860321 382.06958008 C126.8867318 385.79770811 126.89452685 389.52578689 126.90234375 393.25390625 C126.90420773 395.83080518 126.90563173 398.40770447 126.90663147 400.98460388 C126.91006658 407.08675115 126.9179574 413.18887794 126.92798096 419.29101747 C126.93914311 426.2364925 126.9446528 433.18196835 126.94967639 440.12745011 C126.96014004 454.41830966 126.97773885 468.7091542 127 483 C131.82991105 481.46855447 135.93796414 479.43989217 140.25 476.8125 C141.76618915 475.90501595 143.28316888 474.99885194 144.80078125 474.09375 C145.62916504 473.59875 146.45754883 473.10375 147.31103516 472.59375 C152.32667865 469.6209771 157.38418227 466.72060528 162.4375 463.8125 C163.54319336 463.17546143 164.64888672 462.53842285 165.78808594 461.88208008 C168.06024082 460.57299343 170.33254009 459.26415738 172.60498047 457.95556641 C178.07170048 454.80667907 183.53571329 451.65310804 189 448.5 C202 441 215 433.5 228 426 C228 387.72 228 349.44 228 310 C225.10440243 310 223.45865062 311.33441732 220.9609375 312.7890625 Z M-21.28515625 312.3515625 C-22.19563721 312.8657373 -23.10611816 313.37991211 -24.04418945 313.90966797 C-25.04023193 314.47572754 -26.03627441 315.04178711 -27.0625 315.625 C-28.09528076 316.21039551 -29.12806152 316.79579102 -30.19213867 317.39892578 C-38.43248725 322.08189052 -46.62727328 326.8404567 -54.80737305 331.62768555 C-64.05491933 337.03952147 -73.33307625 342.39729319 -82.6171875 347.74609375 C-93.74753921 354.1592964 -104.87317613 360.58067854 -116 367 C-116 405.28 -116 443.56 -116 483 C-112.13650609 481.45460244 -108.87579302 479.88793449 -105.30078125 477.83203125 C-104.18751465 477.19386475 -103.07424805 476.55569824 -101.92724609 475.89819336 C-100.72228318 475.20304466 -99.5173691 474.5078113 -98.3125 473.8125 C-97.05565201 473.09031382 -95.79865088 472.3683941 -94.54150391 471.64672852 C-91.31362852 469.79256933 -88.08810651 467.93436047 -84.86346436 466.07458496 C-82.00474796 464.42607817 -79.14481546 462.77968312 -76.28515625 461.1328125 C-72.01266721 458.67082627 -67.74203268 456.20566082 -63.47265625 453.73828125 C-59.02506207 451.16806351 -54.57425841 448.60352272 -50.12109375 446.04296875 C-48.9810791 445.3869165 -47.84106445 444.73086426 -46.66650391 444.05493164 C-44.52485353 442.82260188 -42.38265585 441.59122247 -40.23974609 440.36108398 C-38.28370451 439.23477697 -36.34230103 438.082533 -34.41894531 436.90127563 C-31.89558594 435.49803538 -29.8289201 434.53752909 -27.16104126 433.59947205 C-22.7135854 431.84129907 -18.91665113 429.8924912 -16 426 C-13.19640156 417.7218186 -14.26258075 408.342879 -14.53515625 399.74609375 C-14.56315283 397.15827085 -14.58449548 394.57036814 -14.59947205 391.98243713 C-14.65076927 385.8819575 -14.76877643 379.78616615 -14.91971439 373.68744761 C-15.08789308 366.73994473 -15.1699727 359.79223784 -15.24514592 352.84320343 C-15.40157207 338.5599552 -15.66507647 324.28012254 -16 310 C-17.92344732 310 -19.66015813 311.43269668 -21.28515625 312.3515625 Z " fill="#000000" transform="translate(261,0)"/>
<path d="M0 0 C4.00535091 2.44771444 5.66804391 3.92602443 7.0625 8.4375 C6.9872003 12.72958311 6.52436453 14.51043727 4 18 C-2.64233213 23.17177072 -10.27941035 27.06835013 -17.625 31.125 C-19.80480874 32.33571924 -21.98449948 33.54665097 -24.1640625 34.7578125 C-25.17831299 35.31831299 -26.19256348 35.87881348 -27.23754883 36.45629883 C-29.52999789 37.73735543 -31.79276116 39.05442008 -34.05078125 40.39453125 C-37.74920965 42.4078479 -39.84801227 42.67941617 -44 42 C-47.58014577 39.94473113 -49.36748152 38.74665002 -50.76953125 34.875 C-51.5205132 30.72003445 -51.5524988 28.90534462 -49.28125 25.18359375 C-44.95550183 20.37254379 -38.89947428 17.59172976 -33.3125 14.5 C-31.03734075 13.21949536 -28.76259527 11.93825525 -26.48828125 10.65625 C-25.39338379 10.04394531 -24.29848633 9.43164062 -23.17041016 8.80078125 C-19.40194724 6.66030824 -15.69943052 4.42390582 -12.01245117 2.14648438 C-7.96457699 -0.15957133 -4.59288502 -0.46707305 0 0 Z " fill="#000000" transform="translate(450,412)"/>
<path d="M0 0 C3.348157 2.37161121 4.65750859 4.01533721 6 7.875 C6 11.87569225 4.83141222 14.47283573 3 18 C0.1706922 20.8293078 -2.06844341 20.73345379 -6 21 C-9.40808286 20.07052286 -12.01705394 18.97441909 -14 16 C-15.06389615 11.36445249 -15.40615057 9.09660654 -13.75 4.625 C-10.21435713 -0.67846431 -5.90271539 -1.00449718 0 0 Z " fill="#000000" transform="translate(476,399)"/>
</svg>
