<?xml version="1.0" encoding="UTF-8"?>
<svg version="1.1" xmlns="http://www.w3.org/2000/svg" width="512" height="512">
<path d="M0 0 C5.62179946 5.70311781 7.20329335 10.4174287 7.28497362 18.29394531 C7.27605073 19.3815918 7.26712785 20.46923828 7.25793457 21.58984375 C7.26417453 22.75878174 7.2704145 23.92771973 7.27684355 25.13208008 C7.29000889 28.36380692 7.28531035 31.59492962 7.27289867 34.82664108 C7.26383301 38.31683262 7.27782539 41.80694369 7.28881836 45.29711914 C7.30659208 52.12924775 7.30276877 58.96120045 7.2911678 65.79333591 C7.28212921 71.34661361 7.28091131 76.89984206 7.28526306 82.453125 C7.28587599 83.24390882 7.28648893 84.03469265 7.28712043 84.84943962 C7.28839935 86.45597078 7.2896962 88.06250192 7.2910108 89.66903305 C7.30241323 104.72864117 7.28930819 119.78815185 7.26780933 134.84774399 C7.24993864 147.76573228 7.25304284 160.6835768 7.27148438 173.6015625 C7.29289705 188.60778165 7.30131463 203.61391542 7.28903532 218.62014771 C7.28776114 220.22072346 7.28650366 221.82129922 7.28526306 223.421875 C7.28433741 224.60310346 7.28433741 224.60310346 7.28339306 225.80819511 C7.27994134 231.35392178 7.28576464 236.89959423 7.29518127 242.4453125 C7.30640706 249.20499168 7.30334913 255.96448509 7.2820583 262.72414303 C7.27155553 266.17216654 7.26741248 269.61988048 7.28065491 273.06790161 C7.29156824 276.8072963 7.27789571 280.54581738 7.25793457 284.28515625 C7.26685746 285.37280273 7.27578034 286.46044922 7.28497362 287.58105469 C7.2063473 295.1630761 5.85681551 299.44384364 0.7421875 305.1953125 C-8.94948529 313.74258113 -19.89006264 317.75101968 -32.25 320.9375 C-32.89888184 321.10556152 -33.54776367 321.27362305 -34.21630859 321.44677734 C-46.0714647 324.30898041 -58.18908437 324.24935261 -70.3125 324.3125 C-71.11230286 324.32044586 -71.91210571 324.32839172 -72.73614502 324.33657837 C-87.47465884 324.44885995 -102.03611139 322.99150293 -116.1875 318.625 C-116.88222412 318.41407715 -117.57694824 318.2031543 -118.29272461 317.98583984 C-128.89908781 314.61393864 -139.39001869 309.2592999 -145.32787323 299.53440094 C-147.92604891 294.20110063 -147.80651646 289.12423602 -147.75793457 283.28552246 C-147.76417453 282.12868627 -147.7704145 280.97185008 -147.77684355 279.77995825 C-147.78999293 276.58662293 -147.78532188 273.39390084 -147.77289867 270.20058131 C-147.76382266 266.74992488 -147.77783049 263.29934931 -147.78881836 259.84870911 C-147.80658108 253.09592442 -147.80277369 246.34331782 -147.7911678 239.59052622 C-147.78212487 234.10116341 -147.78091318 228.61185043 -147.78526306 223.1224823 C-147.78587599 222.34044877 -147.78648893 221.55841524 -147.78712043 220.75268373 C-147.78839937 219.16387084 -147.78969622 217.57505796 -147.7910108 215.9862451 C-147.80241001 201.09685261 -147.78931325 186.20755872 -147.76780933 171.31818241 C-147.74993893 158.54947458 -147.75304322 145.78091223 -147.77148438 133.01220703 C-147.79290275 118.17517086 -147.80131143 103.33822106 -147.78903532 88.50117159 C-147.78776116 86.91828697 -147.78650367 85.33540234 -147.78526306 83.7525177 C-147.78464596 82.97376009 -147.78402886 82.19500249 -147.78339306 81.39264616 C-147.77994305 75.91149782 -147.78576095 70.43040437 -147.79518127 64.94926453 C-147.8064134 58.26722474 -147.80333583 51.58537285 -147.7820583 44.90335453 C-147.77156404 41.49570432 -147.76739789 38.08836709 -147.78065491 34.68071938 C-147.79158289 30.98332644 -147.77787797 27.28681434 -147.75793457 23.58947754 C-147.76685746 22.51709886 -147.77578034 21.44472018 -147.78497362 20.33984518 C-147.70289618 12.49644263 -146.00498135 6.20279151 -140.375 0.375 C-109.40289437 -28.61171424 -31.6756017 -25.24572529 0 0 Z M-127.578125 14.125 C-128.40570313 15.0221875 -128.40570313 15.0221875 -129.25 15.9375 C-126.65871252 21.91642184 -121.83143678 23.89072121 -115.984375 26.26171875 C-86.24094225 36.79848801 -47.68966491 37.45327757 -18.75 23.9375 C-15.74129918 22.32950958 -13.27407531 20.75360478 -11.25 17.9375 C-11.50408689 15.51648345 -11.85281974 14.31125109 -13.640625 12.62890625 C-40.85718917 -3.89543628 -102.17733038 -9.74151843 -127.578125 14.125 Z M-129.25 39.9375 C-130.14096284 47.92504597 -130.14096284 47.92504597 -126.9375 54.875 C-125.22965888 55.97826679 -125.22965888 55.97826679 -123.25 56.9375 C-122.13625 57.56011719 -122.13625 57.56011719 -121 58.1953125 C-94.39393182 71.74169477 -57.13180463 70.71283973 -29.25 62.30078125 C-24.31889386 60.68753241 -19.6411084 58.72122925 -15.25 55.9375 C-14.51136719 55.53144531 -13.77273438 55.12539062 -13.01171875 54.70703125 C-10.92973252 52.97712831 -10.92973252 52.97712831 -10.859375 49.80078125 C-10.90578125 48.62902344 -10.9521875 47.45726562 -11 46.25 C-11.03609375 45.07050781 -11.0721875 43.89101562 -11.109375 42.67578125 C-11.15578125 41.77214844 -11.2021875 40.86851562 -11.25 39.9375 C-11.82741943 40.13384033 -12.40483887 40.33018066 -12.99975586 40.5324707 C-15.72492482 41.45093658 -18.45605469 42.35037885 -21.1875 43.25 C-22.09435547 43.55873047 -23.00121094 43.86746094 -23.93554688 44.18554688 C-39.21845557 49.1748126 -54.09111196 50.4909911 -70.0625 50.375 C-70.93985809 50.37229095 -71.81721619 50.36958191 -72.72116089 50.36679077 C-85.57619886 50.30660486 -97.88798425 49.77905867 -110.25 45.9375 C-110.96913574 45.71835938 -111.68827148 45.49921875 -112.42919922 45.2734375 C-115.74199304 44.24616884 -119.01440643 43.15552735 -122.28125 41.98828125 C-124.60433593 41.1660311 -126.84928674 40.4729532 -129.25 39.9375 Z M-129.25 73.9375 C-130.12743223 81.13812995 -130.12743223 81.13812995 -128.1484375 87.89453125 C-116.20154627 99.04692479 -92.84152015 101.4415042 -77.25 101.9375 C-76.20457031 101.97746094 -75.15914062 102.01742187 -74.08203125 102.05859375 C-53.08252321 102.46940116 -31.5228695 99.83145744 -13.25 88.9375 C-10.92133771 87.04903817 -10.92133771 87.04903817 -11.0546875 83.8984375 C-11.07789063 82.71507812 -11.10109375 81.53171875 -11.125 80.3125 C-11.14304687 79.12398438 -11.16109375 77.93546875 -11.1796875 76.7109375 C-11.20289063 75.79570312 -11.22609375 74.88046875 -11.25 73.9375 C-11.79712646 74.13384033 -12.34425293 74.33018066 -12.90795898 74.5324707 C-51.95182758 88.40594725 -90.31433911 87.84864431 -129.25 73.9375 Z M-129.25 107.9375 C-130.14070296 115.15147007 -130.14070296 115.15147007 -128.11328125 121.89453125 C-126.26489379 123.59075122 -124.45847708 124.74424051 -122.25 125.9375 C-121.44691406 126.37449219 -120.64382813 126.81148437 -119.81640625 127.26171875 C-107.66633655 133.00068784 -92.63850611 135.51853994 -79.25 135.9375 C-78.61980957 135.95796387 -77.98961914 135.97842773 -77.34033203 135.99951172 C-56.08044077 136.59265141 -31.33047716 135.39293982 -13.25 122.9375 C-10.94939466 121.0746051 -10.94939466 121.0746051 -11.0546875 118.1171875 C-11.07789063 117.02664063 -11.10109375 115.93609375 -11.125 114.8125 C-11.14304687 113.71679688 -11.16109375 112.62109375 -11.1796875 111.4921875 C-11.20289063 110.64914062 -11.22609375 109.80609375 -11.25 108.9375 C-16.26521515 109.77336919 -21.03058043 111.37145101 -25.875 112.875 C-32.94928572 115.02663485 -39.89025108 117.03654505 -47.25 117.9375 C-48.09175781 118.04707031 -48.93351562 118.15664063 -49.80078125 118.26953125 C-77.09215787 121.16465607 -103.71284846 117.81240487 -129.25 107.9375 Z M-129.25 141.9375 C-129.98465828 149.74471077 -129.98465828 149.74471077 -127.4375 156.875 C-102.83221679 172.79606561 -67.61227234 172.90648993 -39.7578125 167.48974609 C-30.73603199 165.50305728 -19.61227889 162.93075282 -12.3984375 156.859375 C-9.89227776 152.66539339 -10.70498774 147.61552192 -11.25 142.9375 C-12.508125 143.329375 -13.76625 143.72125 -15.0625 144.125 C-52.85808649 155.35141183 -92.19104203 157.55306898 -129.25 141.9375 Z M-129.25 176.9375 C-130.20136725 184.14045765 -130.20136725 184.14045765 -128.1015625 190.859375 C-109.79429931 206.26729787 -75.50592155 205.50015332 -53.45214844 203.71044922 C-39.33333234 202.19829041 -21.68508331 199.37258331 -11.25 188.9375 C-11.17755947 186.91785801 -11.16622812 184.89582876 -11.1875 182.875 C-11.19652344 181.77027344 -11.20554687 180.66554688 -11.21484375 179.52734375 C-11.22644531 178.67269531 -11.23804688 177.81804687 -11.25 176.9375 C-12.01957031 177.17533203 -12.01957031 177.17533203 -12.8046875 177.41796875 C-15.61503634 178.27432084 -18.43212807 179.10621142 -21.25 179.9375 C-22.2392749 180.23479004 -22.2392749 180.23479004 -23.24853516 180.53808594 C-25.47491476 181.20372025 -27.70571275 181.85274822 -29.9375 182.5 C-30.63020996 182.70971436 -31.32291992 182.91942871 -32.03662109 183.13549805 C-44.44273224 186.68310242 -57.16929723 187.32048776 -70 187.25 C-71.04232788 187.24726578 -71.04232788 187.24726578 -72.10571289 187.24447632 C-90.17847348 187.16500546 -107.22941533 184.7959596 -124.0078125 177.78515625 C-126.31818311 176.7606888 -126.31818311 176.7606888 -129.25 176.9375 Z M-129.25 210.9375 C-130.24217484 218.20806161 -130.24217484 218.20806161 -127.9609375 224.89453125 C-108.30992891 240.74077009 -73.4060622 239.93380253 -49.5859375 237.44140625 C-36.44179399 235.70951494 -20.91360178 232.60110178 -11.25 222.9375 C-11.00660449 220.03866917 -11.00660449 220.03866917 -11.125 216.8125 C-11.14304687 215.71679688 -11.16109375 214.62109375 -11.1796875 213.4921875 C-11.20289063 212.64914062 -11.22609375 211.80609375 -11.25 210.9375 C-12.64603943 211.35347563 -14.04181199 211.77034683 -15.4375 212.1875 C-16.36046875 212.46078125 -17.2834375 212.7340625 -18.234375 213.015625 C-20.21274872 213.62041282 -22.18231073 214.2549896 -24.140625 214.921875 C-55.95193441 225.5256448 -90.73677387 222.83232644 -122.25 212.9375 C-124.57945825 212.25610143 -126.91365274 211.59507115 -129.25 210.9375 Z M-129.25 244.9375 C-130.25408924 252.22249752 -130.25408924 252.22249752 -127.92578125 258.89453125 C-112.56641047 271.09830803 -89.68891336 272.16911944 -70.9375 272.1875 C-69.87094177 272.18901062 -69.87094177 272.18901062 -68.78283691 272.19055176 C-49.25480294 272.17186464 -28.8321554 270.57853232 -12.515625 258.671875 C-10.61694816 256.06998452 -10.96032391 253.91745892 -11.0625 250.75 C-11.08957031 249.66332031 -11.11664063 248.57664062 -11.14453125 247.45703125 C-11.19673828 246.20986328 -11.19673828 246.20986328 -11.25 244.9375 C-12.36375 245.329375 -13.4775 245.72125 -14.625 246.125 C-19.3649512 247.69254292 -24.13977915 249.12158455 -28.9375 250.5 C-29.64245605 250.70971436 -30.34741211 250.91942871 -31.07373047 251.13549805 C-43.89219853 254.75848171 -56.77861021 255.3161199 -70 255.25 C-71.19304245 255.24626877 -71.19304245 255.24626877 -72.41018677 255.24246216 C-91.5400555 255.14988936 -107.3596969 252.07880033 -125.38085938 245.5324707 C-127.240705 244.83639444 -127.240705 244.83639444 -129.25 244.9375 Z M-129.25 278.9375 C-130.14096284 286.92504597 -130.14096284 286.92504597 -126.9375 293.875 C-125.22965888 294.97826679 -125.22965888 294.97826679 -123.25 295.9375 C-122.13625 296.56011719 -122.13625 296.56011719 -121 297.1953125 C-106.07137364 304.796168 -89.08485576 306.13596685 -72.62670898 306.17773438 C-70.34906128 306.18734572 -68.07235513 306.21839299 -65.79492188 306.25 C-48.45869873 306.37538682 -27.25489449 304.24503767 -12.7265625 293.9609375 C-9.57177092 289.63770459 -10.64188488 283.99761838 -11.25 278.9375 C-11.82741943 279.13384033 -12.40483887 279.33018066 -12.99975586 279.5324707 C-15.72492482 280.45093658 -18.45605469 281.35037885 -21.1875 282.25 C-22.09435547 282.55873047 -23.00121094 282.86746094 -23.93554688 283.18554688 C-38.2688416 287.86480117 -52.26112004 289.44361315 -67.26123047 289.32861328 C-69.74892963 289.31250693 -72.23500515 289.32858442 -74.72265625 289.34765625 C-88.50219033 289.36643131 -101.75502973 287.78054791 -114.875 283.375 C-119.64858678 281.79528726 -124.4079269 280.28805252 -129.25 278.9375 Z " fill="white" transform="translate(505.25,188.0625)"/>
<path d="M0 0 C0.72622559 0.17160645 1.45245117 0.34321289 2.20068359 0.52001953 C14.81218195 3.58457255 29.01354548 8.06996653 37 19 C39.72073117 23.60370278 40.43503662 27.36036144 40.39440918 32.61508179 C40.40050028 33.36185389 40.40659139 34.108626 40.41286707 34.87802756 C40.42946026 37.36985061 40.42472664 39.8611606 40.41992188 42.35302734 C40.42726437 44.14387033 40.43585112 45.93470859 40.44558716 47.72554016 C40.46779325 52.58304708 40.47073428 57.4403843 40.46883965 62.29793501 C40.4687199 66.35603833 40.47728577 70.41410576 40.48561716 74.47219908 C40.5048481 84.04789669 40.50773622 93.62350712 40.50097656 103.19921875 C40.49433623 113.07068561 40.5172006 122.94177877 40.55429029 132.81316984 C40.58499978 141.2948962 40.59634595 149.77650242 40.59245348 158.25828326 C40.59038723 163.32120243 40.59584618 168.38383081 40.62034607 173.44669724 C40.64263114 178.2091444 40.64072072 182.97098458 40.62041855 187.73343468 C40.61701159 189.47809637 40.62208409 191.22279906 40.63640213 192.96740532 C40.76050985 209.21465398 40.76050985 209.21465398 35 216 C34.4121875 216.69351563 33.824375 217.38703125 33.21875 218.1015625 C9.87969586 238.7884514 -26.84304188 237.26144753 -56 236 C-74.36554022 234.82286152 -96.35546137 229.3774294 -109.5625 215.90625 C-113.31450059 210.93077096 -114.44183005 206.51829484 -114.39440918 200.38491821 C-114.40050028 199.63814611 -114.40659139 198.891374 -114.41286707 198.12197244 C-114.42946026 195.63014939 -114.42472664 193.1388394 -114.41992188 190.64697266 C-114.42726437 188.85612967 -114.43585112 187.06529141 -114.44558716 185.27445984 C-114.46779325 180.41695292 -114.47073428 175.5596157 -114.46883965 170.70206499 C-114.4687199 166.64396167 -114.47728577 162.58589424 -114.48561716 158.52780092 C-114.5048481 148.95210331 -114.50773622 139.37649288 -114.50097656 129.80078125 C-114.49433623 119.92931439 -114.5172006 110.05822123 -114.55429029 100.18683016 C-114.58499978 91.7051038 -114.59634595 83.22349758 -114.59245348 74.74171674 C-114.59038723 69.67879757 -114.59584618 64.61616919 -114.62034607 59.55330276 C-114.64263114 54.7908556 -114.64072072 50.02901542 -114.62041855 45.26656532 C-114.61701159 43.52190363 -114.62208409 41.77720094 -114.63640213 40.03259468 C-114.76050985 23.78534602 -114.76050985 23.78534602 -109 17 C-108.4121875 16.30648438 -107.824375 15.61296875 -107.21875 14.8984375 C-97.879444 6.62041627 -85.97362949 2.78312669 -74 0 C-72.7315625 -0.30035156 -71.463125 -0.60070312 -70.15625 -0.91015625 C-48.25797443 -5.46308488 -21.72215523 -5.34835674 0 0 Z M-94.80859375 28.40234375 C-96.20945025 29.93582999 -96.20945025 29.93582999 -95.94140625 32.00390625 C-93.71683211 36.72074187 -87.78398995 38.90657893 -83.15380859 40.72509766 C-74.62518645 43.78244784 -66.00172884 45.90811188 -57 47 C-56.15824219 47.11085938 -55.31648438 47.22171875 -54.44921875 47.3359375 C-30.66132945 50.00711172 -0.33351725 49.0075341 20 35 C20.66 34.34 21.32 33.68 22 33 C21.9054272 30.16281589 21.09667786 29.09990045 19.125 27.0625 C2.67050222 16.20253147 -17.21003699 14.76754041 -36.375 14.75 C-37.13500305 14.74899292 -37.8950061 14.74798584 -38.67803955 14.74694824 C-57.96850342 14.76425778 -78.92044436 16.08302273 -94.80859375 28.40234375 Z M-96 55 C-96.84447448 62.64352907 -96.84447448 62.64352907 -94.1875 69.4375 C-93.135625 69.953125 -92.08375 70.46875 -91 71 C-90.25621094 71.39316406 -89.51242188 71.78632813 -88.74609375 72.19140625 C-61.76127145 85.66370949 -24.01286782 85.97603774 4.3125 76.625 C10.62036931 74.31537086 17.18144624 71.81855376 22 67 C22.24339551 64.10116917 22.24339551 64.10116917 22.125 60.875 C22.10695313 59.77929688 22.08890625 58.68359375 22.0703125 57.5546875 C22.04710937 56.71164062 22.02390625 55.86859375 22 55 C17.85819419 55.70332552 14.08024124 56.9715273 10.125 58.375 C-21.69812225 69.29929658 -59.62961033 68.17044612 -90.86328125 55.734375 C-93.09628548 54.83748428 -93.09628548 54.83748428 -96 55 Z M-96 89 C-96.99217484 96.27056161 -96.99217484 96.27056161 -94.7109375 102.95703125 C-75.50621862 118.44338967 -40.49136823 117.96206559 -17.50390625 115.50390625 C-4.12943387 113.72590547 12.10789078 110.89210922 22 101 C22.07244053 98.98035801 22.08377188 96.95832876 22.0625 94.9375 C22.05347656 93.83277344 22.04445313 92.72804688 22.03515625 91.58984375 C22.02355469 90.73519531 22.01195312 89.88054687 22 89 C20.741875 89.391875 19.48375 89.78375 18.1875 90.1875 C13.060187 91.71478472 7.91292028 93.16111374 2.75 94.5625 C2.00129639 94.77221436 1.25259277 94.98192871 0.48120117 95.19799805 C-11.77810346 98.48088404 -24.03526024 99.38156658 -36.6875 99.3125 C-37.38488281 99.31067719 -38.08226562 99.30885437 -38.80078125 99.30697632 C-54.75337423 99.23702879 -69.26394977 97.30968545 -84.38671875 92.18359375 C-88.23343132 90.92353547 -92.0647885 89.94150044 -96 89 Z M-96 123 C-97.00408924 130.28499752 -97.00408924 130.28499752 -94.67578125 136.95703125 C-74.68183383 152.8432075 -40.31620357 152.01305877 -16.3359375 149.50390625 C-3.19915602 147.77411505 12.31197742 144.68802258 22 135 C22.07244053 132.98035801 22.08377188 130.95832876 22.0625 128.9375 C22.05347656 127.83277344 22.04445313 126.72804688 22.03515625 125.58984375 C22.02355469 124.73519531 22.01195312 123.88054687 22 123 C21.23042969 123.23783203 21.23042969 123.23783203 20.4453125 123.48046875 C17.63494177 124.33682751 14.81815779 125.16959156 12 126 C11.33516602 126.19819336 10.67033203 126.39638672 9.98535156 126.60058594 C7.74317123 127.26504804 5.49704876 127.91470863 3.25 128.5625 C2.54891113 128.77221436 1.84782227 128.98192871 1.12548828 129.19799805 C-11.33248995 132.74441959 -23.89039867 133.37946031 -36.75 133.3125 C-37.49767639 133.31034485 -38.24535278 133.3081897 -39.01568604 133.30596924 C-57.14948529 133.22219357 -72.77036843 130.18457235 -89.99560547 124.61669922 C-91.98350994 124.00507356 -93.9780304 123.48579421 -96 123 Z M-96 157 C-96.87785685 164.96355308 -96.87785685 164.96355308 -93.75 171.9375 C-92.03928692 173.05046514 -92.03928692 173.05046514 -90 174 C-88.77603516 174.62261719 -88.77603516 174.62261719 -87.52734375 175.2578125 C-71.71209848 182.52368859 -54.81269188 184.23542474 -37.625 184.25 C-36.55452927 184.25101212 -36.55452927 184.25101212 -35.46243286 184.25204468 C-16.73511743 184.22392993 7.86337609 183.13662391 22 169 C22.24339551 166.10116917 22.24339551 166.10116917 22.125 162.875 C22.10695313 161.77929688 22.08890625 160.68359375 22.0703125 159.5546875 C22.04710937 158.71164062 22.02390625 157.86859375 22 157 C20.88625 157.391875 19.7725 157.78375 18.625 158.1875 C13.8850488 159.75504292 9.11022085 161.18408455 4.3125 162.5625 C3.60754395 162.77221436 2.90258789 162.98192871 2.17626953 163.19799805 C-10.64339058 166.82131863 -23.52787144 167.375553 -36.75 167.3125 C-37.54369995 167.31067719 -38.3373999 167.30885437 -39.15515137 167.30697632 C-56.88906416 167.23837706 -72.16197874 164.61267375 -89 159 C-91.32721768 158.30867447 -93.66117074 157.65150956 -96 157 Z M-96 191 C-96.89096284 198.98754597 -96.89096284 198.98754597 -93.6875 205.9375 C-91.97965888 207.04076679 -91.97965888 207.04076679 -90 208 C-88.88625 208.62261719 -88.88625 208.62261719 -87.75 209.2578125 C-75.52701465 215.48110077 -60.64806832 218.12026418 -47.0390625 218.203125 C-46.29022797 218.20882507 -45.54139343 218.21452515 -44.76986694 218.22039795 C-43.18822619 218.22979745 -41.60656629 218.2363617 -40.02490234 218.24023438 C-37.66596736 218.2498333 -35.30794597 218.28085914 -32.94921875 218.3125 C-14.43257117 218.44118544 5.38151532 215.93781315 20.734375 204.734375 C22.63305184 202.13248452 22.28967609 199.97995892 22.1875 196.8125 C22.16042969 195.72582031 22.13335937 194.63914062 22.10546875 193.51953125 C22.05326172 192.27236328 22.05326172 192.27236328 22 191 C21.42781738 191.19634033 20.85563477 191.39268066 20.26611328 191.5949707 C17.55706858 192.5152022 14.84123368 193.41371961 12.125 194.3125 C11.22652344 194.62123047 10.32804687 194.92996094 9.40234375 195.24804688 C-5.02727102 199.97498964 -19.54097502 201.51108876 -34.65942383 201.39111328 C-37.06584075 201.3749776 -39.47058509 201.39111041 -41.87695312 201.41015625 C-55.68579528 201.42956907 -68.98888399 199.64248621 -82.1875 195.4375 C-83.21327148 195.12522461 -83.21327148 195.12522461 -84.25976562 194.80664062 C-88.19426077 193.6009692 -92.1011402 192.31578939 -96 191 Z " fill="white" transform="translate(293,276)"/>
<path d="M0 0 C0.68330383 -0.00067474 1.36660767 -0.00134949 2.07061768 -0.00204468 C24.95725953 0.03367918 54.09318116 2.2522943 71.8515625 18.66796875 C75.6948146 23.01578188 78.36692982 27.91633135 78.39717102 33.72659302 C78.40790398 35.1395742 78.40790398 35.1395742 78.41885376 36.58110046 C78.42154266 37.61797501 78.42423157 38.65484955 78.42700195 39.72314453 C78.43357315 40.81273972 78.44014435 41.9023349 78.44691467 43.02494812 C78.4666843 46.64423689 78.47831975 50.26348406 78.48828125 53.8828125 C78.49235678 55.11767269 78.4964323 56.35253288 78.50063133 57.62481308 C78.5193551 63.48850502 78.53391543 69.35218056 78.5422433 75.21589673 C78.55200112 81.97438543 78.57827967 88.73254534 78.61874419 95.49091828 C78.652622 101.35138312 78.66439503 107.21173839 78.66844749 113.07229233 C78.67331702 115.56093446 78.68494134 118.04957299 78.70348549 120.53815079 C78.72785485 124.02586161 78.72691511 127.51271823 78.7199707 131.00048828 C78.73918579 132.53758202 78.73918579 132.53758202 78.75878906 134.10572815 C78.7047913 141.56254941 77.09263692 146.78280014 72.34765625 152.5703125 C53.57331353 169.21857802 25.39800634 171.8642841 1.3125 171.625 C0.06832306 171.61851944 0.06832306 171.61851944 -1.20098877 171.61190796 C-13.22378721 171.53855057 -25.04733567 171.2810104 -36.75 168.25 C-37.45688965 168.06775879 -38.1637793 167.88551758 -38.89208984 167.69775391 C-52.42805373 164.07221155 -66.31585941 159.0775473 -74.35681152 146.79574585 C-76.29567811 141.86121741 -76.18471955 137.39653022 -76.16992188 132.13916016 C-76.17839142 131.02947372 -76.18686096 129.91978729 -76.19558716 128.776474 C-76.21895613 125.11388641 -76.21997926 121.45171896 -76.21875 117.7890625 C-76.22585179 115.23847282 -76.23355081 112.68788474 -76.24182129 110.13729858 C-76.25526606 104.79265275 -76.25701646 99.44816154 -76.25097656 94.10351562 C-76.24433911 87.94010551 -76.26719358 81.77729436 -76.30429029 75.61400568 C-76.33877008 69.66808394 -76.34531749 63.72234575 -76.34120178 57.7763176 C-76.34289319 55.25418693 -76.35253759 52.73204838 -76.37034607 50.20998001 C-76.39253188 46.67938268 -76.3828336 43.1502222 -76.36523438 39.61962891 C-76.37849762 38.58248245 -76.39176086 37.545336 -76.40542603 36.47676086 C-76.31753687 28.87126938 -74.35978029 24.10172247 -69.16573334 18.55954933 C-52.10156339 1.99965112 -22.41136121 0.01995398 0 0 Z M-57.75 33.25 C-57.55010424 35.79738957 -57.04372558 36.95169687 -55.24609375 38.77734375 C-32.27533265 54.51253305 3.41985744 54.16745458 29.58203125 49.29296875 C40.69045466 46.94611873 51.71158789 44.04594149 60.25 36.25 C59.87518169 33.79520404 59.5096308 32.51367699 57.74609375 30.72265625 C30.72305271 12.21161675 -33.19001603 8.69001603 -57.75 33.25 Z M-57.75 58.25 C-58.62785685 66.21355308 -58.62785685 66.21355308 -55.5 73.1875 C-53.78928692 74.30046514 -53.78928692 74.30046514 -51.75 75.25 C-50.52603516 75.87261719 -50.52603516 75.87261719 -49.27734375 76.5078125 C-20.63666362 89.66597916 17.65225839 89.09635497 46.984375 78.65234375 C51.80552395 76.58201782 56.50643407 73.99356593 60.25 70.25 C60.32244053 68.23035801 60.33377188 66.20832876 60.3125 64.1875 C60.30347656 63.08277344 60.29445313 61.97804688 60.28515625 60.83984375 C60.27355469 59.98519531 60.26195312 59.13054687 60.25 58.25 C59.48042969 58.48783203 59.48042969 58.48783203 58.6953125 58.73046875 C55.88494177 59.58682751 53.06815779 60.41959156 50.25 61.25 C49.58516602 61.44819336 48.92033203 61.64638672 48.23535156 61.85058594 C45.99317123 62.51504804 43.74704876 63.16470863 41.5 63.8125 C40.79891113 64.02221436 40.09782227 64.23192871 39.37548828 64.44799805 C26.91688741 67.99459683 14.35998157 68.62787547 1.5 68.5625 C0.75332062 68.56067719 0.00664124 68.55885437 -0.76266479 68.55697632 C-18.48633597 68.48421107 -33.90603902 65.5388292 -50.75 60.25 C-53.07945825 59.56860143 -55.41365274 58.90757115 -57.75 58.25 Z M-57.75 92.25 C-58.64096284 100.23754597 -58.64096284 100.23754597 -55.4375 107.1875 C-53.72641615 108.28964867 -53.72641615 108.28964867 -51.75 109.25 C-50.65365234 109.87261719 -50.65365234 109.87261719 -49.53515625 110.5078125 C-34.24790894 118.37520942 -16.23336863 119.48570401 0.625 119.5 C1.69547073 119.50101212 1.69547073 119.50101212 2.78756714 119.50204468 C21.50763481 119.47394081 46.08583602 118.41416398 60.25 104.25 C60.32244053 102.23035801 60.33377188 100.20832876 60.3125 98.1875 C60.30347656 97.08277344 60.29445313 95.97804688 60.28515625 94.83984375 C60.27355469 93.98519531 60.26195312 93.13054687 60.25 92.25 C58.85396057 92.66597563 57.45818801 93.08284683 56.0625 93.5 C54.67998047 93.90992188 54.67998047 93.90992188 53.26953125 94.328125 C51.27908383 94.93581658 49.2967163 95.57073097 47.32421875 96.234375 C15.72066454 106.67519342 -19.51179563 104.66273479 -50.75 94.25 C-53.07721768 93.55867447 -55.41117074 92.90150956 -57.75 92.25 Z M-57.75 126.25 C-58.8931721 134.13016149 -58.8931721 134.13016149 -56.2734375 141.2734375 C-40.57269987 152.38744279 -17.92816889 153.82654734 0.6875 153.625 C1.44936615 153.62067963 2.2112323 153.61635925 2.9961853 153.61190796 C21.95955319 153.48602018 45.90410336 152.59589664 60.25 138.25 C60.49339551 135.35116917 60.49339551 135.35116917 60.375 132.125 C60.35695313 131.02929688 60.33890625 129.93359375 60.3203125 128.8046875 C60.29710937 127.96164062 60.27390625 127.11859375 60.25 126.25 C59.13625 126.641875 58.0225 127.03375 56.875 127.4375 C52.1163827 129.01369816 47.31941722 130.43603214 42.5 131.8125 C41.42999756 132.12707153 41.42999756 132.12707153 40.33837891 132.44799805 C27.39809979 136.08915857 14.5968838 136.65661898 1.25 136.625 C0.38694244 136.62445618 -0.47611511 136.62391235 -1.36532593 136.62335205 C-21.46402849 136.56512397 -38.88978352 133.15850421 -57.75 126.25 Z " fill="white" transform="translate(75.75,340.75)"/>
<path d="M0 0 C31.02 0 62.04 0 94 0 C94 31.02 94 62.04 94 94 C88.06 94 82.12 94 76 94 C75.67 73.87 75.34 53.74 75 33 C70.97981689 37.96281006 66.95963379 42.92562012 62.81762695 48.03881836 C44.44201776 70.43832285 25.31963339 92.15777675 5.68004358 113.45424074 C4.31642713 114.93324057 2.95443584 116.41372568 1.59245777 117.89423418 C-41.86099748 165.06623172 -82.30544325 205.43465974 -149.25933605 208.29434556 C-162.58617721 208.72114722 -175.83328926 208.1471835 -189.125 207.1875 C-190.12702564 207.11522108 -191.12905128 207.04294215 -192.16144133 206.96847296 C-209.99905711 205.64243699 -227.81134457 203.95977454 -245.46006775 201.01446533 C-247.06882537 200.75678825 -248.67763857 200.49945792 -250.28651142 200.24250126 C-253.23719942 199.76936297 -256.16270901 199.22904112 -259.09215832 198.63978481 C-266.36012382 197.33762873 -266.36012382 197.33762873 -273.05283737 199.83216286 C-275.58273103 202.09340761 -277.79090115 204.42969685 -280 207 C-281.75583957 208.4557762 -283.52320344 209.89804789 -285.3125 211.3125 C-290.12665588 215.20320708 -294.64924334 219.33000466 -299.16333008 223.55786133 C-303.35293609 227.45968389 -307.72154714 231.07310178 -312.1875 234.65625 C-315.39849805 237.33208171 -318.45029137 240.14358276 -321.5 243 C-326.23866464 247.43832674 -331.12119326 251.5914225 -336.1875 255.65625 C-339.39849805 258.33208171 -342.45029137 261.14358276 -345.5 264 C-350.23866464 268.43832674 -355.12119326 272.5914225 -360.1875 276.65625 C-363.39849805 279.33208171 -366.45029137 282.14358276 -369.5 285 C-374.23014497 289.43034705 -379.09865713 293.58103833 -384.1640625 297.62890625 C-388.10156414 300.92100473 -391.81880016 304.43821063 -395.49804688 308.015625 C-398.48646833 310.85781254 -401.03925468 312.77962275 -405 314 C-406.46381359 312.42173185 -407.92085163 310.83717771 -409.375 309.25 C-410.59316406 307.92742187 -410.59316406 307.92742187 -411.8359375 306.578125 C-413.6625848 304.40197479 -414.89787994 302.59179881 -416 300 C-414.67548828 298.87464844 -414.67548828 298.87464844 -413.32421875 297.7265625 C-407.5799633 292.83199661 -401.86601566 287.92334412 -396.3125 282.8125 C-392.83863691 279.62263156 -389.30089975 276.57951106 -385.625 273.625 C-380.8285929 269.75781137 -376.3295854 265.65019284 -371.83642578 261.44189453 C-367.64688433 257.5401747 -363.27836175 253.92682513 -358.8125 250.34375 C-355.60150195 247.66791829 -352.54970863 244.85641724 -349.5 242 C-344.76133536 237.56167326 -339.87880674 233.4085775 -334.8125 229.34375 C-331.60150195 226.66791829 -328.54970863 223.85641724 -325.5 221 C-320.76133536 216.56167326 -315.87880674 212.4085775 -310.8125 208.34375 C-307.60149423 205.66791186 -304.54979875 202.85633134 -301.5 200 C-296.69810993 195.50488551 -291.77367631 191.24228044 -286.6328125 187.1328125 C-284.09084898 185.22725525 -284.09084898 185.22725525 -282.72854614 183.41768551 C-280.92314161 181.3842099 -279.45525632 180.20018581 -277 179 C-272.71324507 178.84903214 -268.66295504 179.5576966 -264.45639765 180.34861743 C-260.64357626 181.05772363 -256.80922555 181.63188435 -252.97721863 182.22671509 C-252.15634583 182.35692305 -251.33547303 182.48713101 -250.48972529 182.62128466 C-232.77647514 185.3925475 -214.87916523 186.85392789 -197 188.0625 C-196.00953533 188.13012244 -195.01907065 188.19774487 -193.9985919 188.26741648 C-141.77854895 191.69408834 -99.76692332 185.4610566 -59.3303684 150.31350785 C-40.96801522 134.01013026 -23.9126537 116.51391258 -7.3125 98.4375 C-6.43832932 97.487857 -5.56415863 96.53821401 -4.66349792 95.55979395 C18.13167254 70.76155989 39.85940512 45.22058996 61 19 C30.805 18.505 30.805 18.505 0 18 C0 12.06 0 6.12 0 0 Z " fill="white" transform="translate(418,0)"/>
</svg>
