<?xml version="1.0" encoding="UTF-8"?>
<svg version="1.1" xmlns="http://www.w3.org/2000/svg" width="512" height="512">
<path d="M0 0 C9.06232615 -1.4260011 18.12974408 -2.52441922 25.97249794 3.03543091 C31.30350904 7.45078567 36.04708449 12.44557134 40.82543945 17.44140625 C42.69608082 19.31797983 44.57047044 21.1899422 46.45042419 23.05709839 C50.47119596 27.06692153 54.45208642 31.11301024 58.40755653 35.18722534 C64.12604654 41.07727242 69.9025064 46.90762292 75.69418993 52.72560656 C85.09142934 62.16867127 94.44093267 71.65754963 103.76098633 81.17675781 C112.80809651 90.41698551 121.87726902 99.63462648 130.97680664 108.82324219 C131.53881861 109.39077135 132.10083057 109.95830051 132.67987321 110.54302752 C135.49979935 113.39036185 138.32016279 116.23726258 141.14074385 119.08394814 C164.49535635 142.65583722 187.77268104 166.30265734 211 190 C219.38949195 186.05445772 224.97195094 177.59349262 228.796875 169.38671875 C230.65730762 164.14972175 231.46405971 158.84028819 232.30859375 153.36328125 C237.23649 121.40640583 256.8857123 102.79668315 279.01542377 80.78178835 C281.87377812 77.93609458 284.72631828 75.0845836 287.57952881 72.23373413 C292.96187644 66.85755688 298.34929285 61.48648995 303.73863578 56.11732614 C309.88307793 49.99538281 316.02171599 43.86763321 322.15991831 37.73943448 C334.76691661 25.15323733 347.381039 12.57420272 360 0 C363.52344644 1.6586188 365.79901878 3.56657308 368.546875 6.3515625 C369.39121094 7.20234375 370.23554688 8.053125 371.10546875 8.9296875 C371.97816406 9.81914062 372.85085938 10.70859375 373.75 11.625 C374.63816406 12.5221875 375.52632813 13.419375 376.44140625 14.34375 C378.63216969 16.55807004 380.81812763 18.77692435 383 21 C381.65323083 24.00023948 380.16088099 26.08720005 377.83627319 28.40423584 C377.185634 29.05762436 376.53499481 29.71101288 375.86463928 30.38420105 C375.15182297 31.08982681 374.43900665 31.79545258 373.70458984 32.52246094 C372.95327286 33.27406998 372.20195587 34.02567902 371.4278717 34.80006409 C368.94360487 37.28293771 366.45232905 39.7586523 363.9609375 42.234375 C362.23700151 43.95458084 360.51350659 45.6752288 358.79043579 47.39630127 C354.25415749 51.92494332 349.71190506 56.44754715 345.168396 60.96893311 C340.53313047 65.58374014 335.90352137 70.20421396 331.2734375 74.82421875 C322.18782914 83.88837732 313.09609212 92.9463628 304 102 C305.53287586 105.22314687 307.14150688 107.37735598 309.6953125 109.890625 C310.41074219 110.59960938 311.12617188 111.30859375 311.86328125 112.0390625 C312.60964844 112.76867187 313.35601562 113.49828125 314.125 114.25 C315.25615234 115.36761719 315.25615234 115.36761719 316.41015625 116.5078125 C318.26900772 118.3431342 320.13237005 120.1736191 322 122 C327.10841702 117.7237549 331.89109048 113.24775843 336.58764648 108.52587891 C337.31043289 107.80323853 338.0332193 107.08059814 338.77790833 106.33605957 C341.14468416 103.96859215 343.50790719 101.59761225 345.87109375 99.2265625 C347.51996846 97.57582093 349.16906542 95.92530133 350.81837463 94.2749939 C355.14254924 89.94701522 359.4637113 85.61604101 363.78424072 81.28442383 C368.2000387 76.85836624 372.618696 72.43516519 377.03710938 68.01171875 C385.69419795 59.3439301 394.34810481 50.67297231 403 42 C404.12203297 42.95640926 405.24331233 43.91370268 406.36427307 44.87136841 C407.30101285 45.67086505 407.30101285 45.67086505 408.25667667 46.48651314 C410.23901519 48.20750388 412.1169148 50.00290519 413.96484375 51.8671875 C414.61904297 52.52460937 415.27324219 53.18203125 415.94726562 53.859375 C416.60404297 54.52453125 417.26082031 55.1896875 417.9375 55.875 C418.62134766 56.56335937 419.30519531 57.25171875 420.00976562 57.9609375 C421.67551464 59.63833511 423.3388622 61.31803791 425 63 C423.65323083 66.00023948 422.16088099 68.08720005 419.83627319 70.40423584 C418.86031441 71.38431862 418.86031441 71.38431862 417.86463928 72.38420105 C417.15182297 73.08982681 416.43900665 73.79545258 415.70458984 74.52246094 C414.95327286 75.27406998 414.20195587 76.02567902 413.4278717 76.80006409 C410.94360487 79.28293771 408.45232905 81.7586523 405.9609375 84.234375 C404.23700151 85.95458084 402.51350659 87.6752288 400.79043579 89.39630127 C396.25415749 93.92494332 391.71190506 98.44754715 387.168396 102.96893311 C382.53313047 107.58374014 377.90352137 112.20421396 373.2734375 116.82421875 C364.18782914 125.88837732 355.09609212 134.9463628 346 144 C347.53287586 147.22314687 349.14150688 149.37735598 351.6953125 151.890625 C352.41074219 152.59960938 353.12617188 153.30859375 353.86328125 154.0390625 C354.60964844 154.76867187 355.35601562 155.49828125 356.125 156.25 C356.87910156 156.99507812 357.63320313 157.74015625 358.41015625 158.5078125 C360.26900772 160.3431342 362.13237005 162.1736191 364 164 C367.00023948 162.65323083 369.08720005 161.16088099 371.40423584 158.83627319 C372.05762436 158.185634 372.71101288 157.53499481 373.38420105 156.86463928 C374.08982681 156.15182297 374.79545258 155.43900665 375.52246094 154.70458984 C376.27406998 153.95327286 377.02567902 153.20195587 377.80006409 152.4278717 C380.28293771 149.94360487 382.7586523 147.45232905 385.234375 144.9609375 C386.95458084 143.23700151 388.6752288 141.51350659 390.39630127 139.79043579 C394.92494332 135.25415749 399.44754715 130.71190506 403.96893311 126.168396 C408.58374014 121.53313047 413.20421396 116.90352137 417.82421875 112.2734375 C426.88837732 103.18782914 435.9463628 94.09609212 445 85 C448.52344644 86.6586188 450.79901878 88.56657308 453.546875 91.3515625 C454.39121094 92.20234375 455.23554688 93.053125 456.10546875 93.9296875 C456.97816406 94.81914063 457.85085938 95.70859375 458.75 96.625 C459.63816406 97.5221875 460.52632813 98.419375 461.44140625 99.34375 C463.63216969 101.55807004 465.81812763 103.77692435 468 106 C462.91438021 112.13916049 457.38911777 117.77269477 451.76293945 123.4140625 C450.73539979 124.44787955 449.70804592 125.48188131 448.68086243 126.51605225 C445.32855341 129.88924509 441.97105303 133.25724641 438.61328125 136.625 C437.45141137 137.79092272 436.28957366 138.9568775 435.12776756 140.12286377 C429.66870704 145.6009382 424.2072635 151.076623 418.74286777 156.54937553 C412.46004738 162.84196683 406.18559556 169.14275061 399.91811973 175.45062447 C395.05530735 180.34369026 390.18475495 185.22896577 385.30844468 190.10857964 C382.40415143 193.01521189 379.50318853 195.92498557 376.61040688 198.84307861 C373.88673627 201.59019856 371.15349529 204.32743698 368.41297722 207.05774689 C367.41590931 208.05432348 366.42217853 209.05425345 365.43230438 210.05797577 C350.5865983 225.0994714 334.04692837 232.4328824 313.375 235.4375 C306.72639581 236.42378897 300.82906872 237.46904462 295 241 C294.25878906 241.43183594 293.51757812 241.86367187 292.75390625 242.30859375 C287.08878646 245.83376947 282.53525825 250.13108514 278 255 C279.31451079 257.90535781 280.72308061 259.9714239 282.97799301 262.21850204 C283.8980323 263.14266438 283.8980323 263.14266438 284.83665824 264.08549666 C285.51154674 264.75319524 286.18643524 265.42089382 286.8817749 266.10882568 C287.59795557 266.82530407 288.31413624 267.54178246 289.05201936 268.27997231 C291.45932707 270.68588819 293.87371193 273.08457531 296.28808594 275.48339844 C298.01305716 277.2045323 299.73757429 278.92612136 301.46166992 280.64813232 C305.17911515 284.35924822 308.89954049 288.06734886 312.62255096 291.77288055 C318.01294177 297.13815174 323.39683793 302.50990284 328.77898219 307.88344505 C337.52135535 316.61168071 346.26745195 325.33617445 355.01660156 334.05761719 C355.5402449 334.5796049 356.06388823 335.10159261 356.60339954 335.63939813 C360.84990695 339.87242281 365.09659482 344.10526641 369.34329987 348.3380928 C373.04958683 352.03227886 376.75580479 355.72653412 380.46191406 359.42089844 C380.98370742 359.94103554 381.50550077 360.46117264 382.04310605 360.99707147 C390.75464114 369.68119942 399.46222311 378.36928081 408.16700959 387.06017327 C413.5327799 392.41699767 418.90207253 397.77024424 424.27600577 403.11887982 C428.39846546 407.22243815 432.51579248 411.33111509 436.63128662 415.44165802 C438.31695582 417.12358903 440.00435019 418.80379313 441.69361115 420.4821167 C444.00384298 422.77786316 446.30776632 425.07976664 448.61029053 427.38323975 C449.27625614 428.04201544 449.94222175 428.70079113 450.62836814 429.37952971 C460.43677334 439.23115512 468.09457975 450.09181314 468.38012695 464.45751953 C468.35372874 476.2612942 466.01874082 485.31826633 459 495 C458.58234375 495.59425781 458.1646875 496.18851562 457.734375 496.80078125 C451.6024405 504.74762739 441.94323144 510.57772424 432 512 C416.67332597 513.27515661 405.5541969 511.14692622 393 502 C390.22835548 499.60831385 387.65532774 497.04941855 385.08421326 494.44497681 C384.34148401 493.70481083 383.59875476 492.96464486 382.83351856 492.20204961 C380.36678646 489.74022687 377.91087397 487.26789642 375.45483398 484.79541016 C373.68077474 483.02050402 371.90605331 481.24625955 370.13072205 479.47262573 C366.32038967 475.66297471 362.51467954 471.84880043 358.71316338 468.03035355 C353.21692621 462.509654 347.71234658 456.9973341 342.20574678 451.48697297 C333.27019521 442.54486824 324.34135281 433.59609557 315.41674805 424.64306641 C306.75133488 415.95008323 298.0827519 407.26028109 289.40991211 398.57470703 C288.87461742 398.03862417 288.33932272 397.50254131 287.78780698 396.95021351 C285.10216162 394.26065281 282.41645408 391.5711542 279.73071563 388.88168645 C257.47749723 366.5974075 235.2352887 344.30216995 213 322 C210.09464219 323.31451079 208.0285761 324.72308061 205.78149796 326.97799301 C205.16538973 327.59135254 204.54928151 328.20471206 203.91450334 328.83665824 C203.24680476 329.51154674 202.57910618 330.18643524 201.89117432 330.8817749 C201.17469593 331.59795557 200.45821754 332.31413624 199.72002769 333.05201936 C197.31411181 335.45932707 194.91542469 337.87371193 192.51660156 340.28808594 C190.7954677 342.01305716 189.07387864 343.73757429 187.35186768 345.46166992 C183.64075178 349.17911515 179.93265114 352.89954049 176.22711945 356.62255096 C170.86184826 362.01294177 165.49009716 367.39683793 160.11655495 372.77898219 C151.38831929 381.52135535 142.66382555 390.26745195 133.94238281 399.01660156 C133.15940125 399.80206656 133.15940125 399.80206656 132.36060187 400.60339954 C128.12757719 404.84990695 123.89473359 409.09659482 119.6619072 413.34329987 C115.96772114 417.04958683 112.27346588 420.75580479 108.57910156 424.46191406 C108.05896446 424.98370742 107.53882736 425.50550077 107.00292853 426.04310605 C98.31880058 434.75464114 89.63071919 443.46222311 80.93982673 452.16700959 C75.58300233 457.5327799 70.22975576 462.90207253 64.88112018 468.27600577 C60.77756185 472.39846546 56.66888491 476.51579248 52.55834198 480.63128662 C50.87641097 482.31695582 49.19620687 484.00435019 47.5178833 485.69361115 C45.22213684 488.00384298 42.92023336 490.30776632 40.61676025 492.61029053 C39.95798456 493.27625614 39.29920887 493.94222175 38.62047029 494.62836814 C32.72984834 500.49314725 26.66908698 505.70525732 18.875 508.8125 C17.90304688 509.21082031 16.93109375 509.60914063 15.9296875 510.01953125 C4.29396928 513.91361828 -7.81907506 512.6817397 -19 508 C-31.3557038 501.56513423 -38.70636323 491.70043705 -43.140625 478.640625 C-45.90956258 466.91039852 -44.69866544 454.38906408 -38.79114437 443.84169197 C-32.73639327 434.75541766 -24.77063196 427.37389201 -17.05883789 419.71826172 C-15.43156545 418.09183653 -13.80495536 416.46474841 -12.17895508 414.83705139 C-7.78330779 410.44054655 -3.37850008 406.05332594 1.02805781 401.66776037 C5.63921005 397.0754149 10.24181728 392.4745213 14.84535217 387.87454224 C22.56663482 380.16151197 30.29312549 372.45373525 38.02368164 364.75 C45.98229637 356.81896857 53.9377196 348.88475795 61.88891602 340.94628906 C62.37993122 340.45606203 62.87094643 339.96583499 63.37684088 339.46075259 C65.84036992 337.00113898 68.30383681 334.54146313 70.76727283 332.08175635 C91.16855734 311.71151651 111.58080432 291.35228499 132 271 C128.4889788 266.82592245 124.91729128 262.79381313 121.04911804 258.94232178 C120.58890017 258.48266061 120.1286823 258.02299944 119.65451843 257.54940915 C118.1349264 256.03281659 116.61178907 254.51983827 115.08862305 253.00683594 C113.98882249 251.91059736 112.88926033 250.81411958 111.78991699 249.71742249 C109.43251741 247.36654428 107.07361804 245.01718528 104.71356773 242.6689682 C100.97305442 238.94685524 97.23698331 235.22030459 93.50166321 231.49298096 C82.88256045 220.89794656 72.25758252 210.30881574 61.62817383 199.72412109 C55.74955155 193.87014987 49.87461048 188.01250858 44.00349838 182.15100503 C40.30033754 178.45433972 36.59274151 174.76220235 32.88166273 171.0734868 C30.56172912 168.76538993 28.2460913 166.45301892 25.93157196 164.13949394 C24.86799478 163.07804107 23.80272474 162.01828092 22.73552132 160.96047401 C-2.14865504 136.2867182 -15.99855278 107.85599945 -16.25 72.625 C-16.02916408 48.94977403 -10.63275945 26.16723034 -1.73797607 4.27716064 C-1.41229015 3.47530964 -1.08660423 2.67345863 -0.75104904 1.84730911 C-0.50320286 1.23769711 -0.25535667 0.6280851 0 0 Z M19 43 C12.67504817 68.73738262 13.35128482 94.70697181 26.88886678 118.24466658 C28.57859336 120.91404365 30.60552022 123.13845628 32.7615509 125.44195557 C33.23426385 125.94779938 33.70697679 126.45364319 34.19401437 126.97481561 C40.89290423 134.08793759 47.83553158 140.96678624 54.75268555 147.86621094 C56.3111536 149.42439632 57.8694003 150.98280312 59.42744446 152.54141235 C63.62277119 156.73702391 67.82115586 160.92956299 72.02012992 165.12152386 C76.42080879 169.51591654 80.81862241 173.91317487 85.2167511 178.31011963 C93.53004617 186.62031683 101.8458852 194.92796342 110.16265947 203.23467851 C116.80934013 209.87343884 123.45478817 216.51343111 130.09936523 223.15429688 C130.56842058 223.62308949 131.03747592 224.09188211 131.52074506 224.57488057 C133.87426862 226.92709893 136.22777029 229.27933919 138.5812639 231.63158751 C158.0510052 251.09089941 177.52431353 270.5466384 197 290 C198.12745084 289.03772416 199.25432453 288.07477206 200.38095188 287.11153221 C201.32233567 286.30727446 201.32233567 286.30727446 202.28273731 285.48676908 C204.04099847 283.96450441 205.72431555 282.39677055 207.36499023 280.74853516 C207.92504257 280.18840729 208.48509491 279.62827942 209.06211853 279.05117798 C209.92662376 278.17893082 209.92662376 278.17893082 210.80859375 277.2890625 C211.42017838 276.67606293 212.031763 276.06306335 212.66188049 275.43148804 C214.58947559 273.49835436 216.51353928 271.56175013 218.4375 269.625 C219.75432404 268.30315301 221.07137926 266.98153628 222.38867188 265.66015625 C225.59512373 262.44275701 228.79841629 259.22224319 232 256 C227.41164638 250.49629081 222.53697858 245.39555109 217.46464539 240.33766174 C216.61901262 239.49046898 215.77337985 238.64327622 214.90212184 237.77041095 C212.5706834 235.43568882 210.23704255 233.10320971 207.90240943 230.77168477 C205.37920029 228.25074663 202.85888079 225.72692229 200.33818054 223.20347595 C195.40777602 218.26863409 190.47468328 213.33648807 185.54060831 208.40531636 C181.53291489 204.39988344 177.52620116 200.39347296 173.52018166 196.38636589 C172.66424753 195.53020191 172.66424753 195.53020191 171.7910218 194.65674169 C170.6318125 193.49721266 169.47260544 192.33768139 168.3134006 191.1781479 C157.45592643 180.31782531 146.59539442 169.46056476 135.73380772 158.60435539 C126.4063286 149.28135094 117.08148456 139.95571764 107.75854492 130.62817383 C96.93125552 119.79553982 86.10235486 108.96452078 75.27085525 98.13609642 C74.11748124 96.98304096 72.96410932 95.82998342 71.81073952 94.67692375 C71.24324344 94.10958195 70.67574736 93.54224015 70.09105444 92.95770617 C66.08401172 88.95152841 62.07813369 84.9441883 58.07269859 80.93640327 C53.19889106 76.05979914 48.32332215 71.18496442 43.4454452 66.31243063 C40.9549644 63.82458762 38.46530779 61.33593387 35.97779083 58.84512711 C33.28803402 56.15186662 30.59445269 53.46245296 27.9004364 50.77345276 C27.10590661 49.97669225 26.31137682 49.17993174 25.49277037 48.35902697 C24.77690003 47.64576437 24.06102969 46.93250178 23.3234663 46.19762516 C22.70131935 45.57564056 22.07917241 44.95365597 21.43817252 44.31282336 C20.20145105 42.88763534 20.20145105 42.88763534 19 43 Z M275.75 128.75 C267.00529902 137.87728165 264.88438649 148.99112938 263 161 C259.38845904 182.57482642 249.84907897 198.04429291 234 213 C238.23816537 218.06623768 242.67408963 222.80038069 247.375 227.4375 C248.01566406 228.07365234 248.65632813 228.70980469 249.31640625 229.36523438 C250.87530879 230.91250332 252.43651416 232.45736492 254 234 C259.34046942 229.51047003 259.34046942 229.51047003 264.25 224.5625 C268.6000864 220.15402318 273.6693042 217.09596121 279 214 C279.78117187 213.53464844 280.56234375 213.06929688 281.3671875 212.58984375 C290.65446921 207.47714826 301.19384034 205.54846325 311.57617188 203.96240234 C323.74878514 202.07307715 333.15297481 197.79498387 342 189 C340.37582304 184.91482394 337.45036838 182.16868302 334.38867188 179.12988281 C333.81613174 178.55383804 333.24359161 177.97779327 332.65370178 177.3842926 C330.7637119 175.4855142 328.86651702 173.59412809 326.96875 171.703125 C325.65331212 170.38634002 324.33817127 169.06925826 323.02331543 167.75189209 C320.26927355 164.99490316 317.51164986 162.24156091 314.75146484 159.49072266 C311.20690886 155.95758329 307.67143598 152.41551214 304.13857269 148.87068558 C301.4262292 146.15113133 298.70916037 143.43633859 295.99061584 140.72298431 C294.68454488 139.41825086 293.37996717 138.1120209 292.07688904 136.8042984 C290.25981842 134.98217305 288.43650292 133.16654158 286.61132812 131.35253906 C285.79928673 130.53442497 285.79928673 130.53442497 284.97084045 129.69978333 C281.07210386 125.84535011 279.83627634 124.88460347 275.75 128.75 Z M252.05053711 279.8359375 C250.8015564 281.09277344 250.8015564 281.09277344 249.52734375 282.375 C248.62822266 283.27734375 247.72910156 284.1796875 246.80273438 285.109375 C245.84760264 286.07286352 244.89252523 287.0364059 243.9375 288 C242.97874399 288.9637689 242.01976256 289.9273136 241.06054688 290.890625 C238.70479686 293.25821295 236.35140261 295.62809556 234 298 C238.22370605 303.03741564 242.62816856 307.77853372 247.27340698 312.42730713 C247.98342712 313.14170952 248.69344725 313.8561119 249.42498314 314.59216285 C251.78991248 316.97038029 254.15834864 319.34507238 256.52685547 321.71972656 C258.22920056 323.42997997 259.93136469 325.1404135 261.63336182 326.85101318 C266.72668336 331.96819877 271.82430726 337.08108316 276.92310208 342.19281352 C278.36425573 343.63768566 279.8052821 345.08268463 281.24626398 346.52772808 C290.20773002 355.51441685 299.17078909 364.49951347 308.13863945 373.4798317 C310.21044721 375.55456874 312.28223873 377.629322 314.35400391 379.70410156 C314.86887938 380.21972309 315.38375486 380.73534462 315.91423263 381.26659104 C324.26501384 389.63004142 332.60544977 398.00373108 340.94173168 406.38163117 C349.51166769 414.99399908 358.09101421 423.59690214 366.67957985 432.19069266 C371.49722157 437.01174499 376.31062749 441.8368668 381.11346054 446.67267609 C385.6279788 451.21814243 390.15513465 455.75076061 394.69104767 460.27487946 C396.35301814 461.93662883 398.01071713 463.60266298 399.66378403 465.27326965 C401.92200068 467.55413647 404.19513297 469.81903149 406.47262573 472.08062744 C407.12225529 472.74413908 407.77188484 473.40765072 408.44120014 474.09126878 C412.68759426 478.26506094 416.22500314 480.42148248 422 482 C426.59770604 481.69643395 429.30051655 480.57783416 432.875 477.625 C436.33161502 473.3550638 437.20702208 470.89064971 437.4609375 465.29296875 C436.04110191 458.22988832 430.68933381 453.26355844 425.7681427 448.40065002 C425.03855825 447.66779673 424.30897379 446.93494344 423.55728072 446.17988247 C421.119232 443.73457091 418.6706413 441.30010285 416.22192383 438.86547852 C414.46864683 437.11141043 412.71602329 435.35668897 410.96400452 433.60136414 C406.70395601 429.3367182 402.43704095 425.07905607 398.16688827 420.82453585 C393.19607131 415.8712805 388.2333448 410.90995205 383.27097412 405.94823729 C374.4211674 397.10011681 365.56432613 388.25907198 356.70336914 379.42211914 C348.09927375 370.84131523 339.49976794 362.2559478 330.90551758 353.6652832 C330.37544866 353.13543705 329.84537975 352.60559091 329.29924814 352.05968881 C328.23145768 350.99234095 327.16366751 349.92499281 326.09587763 348.85764438 C325.5691842 348.33117051 325.04249076 347.80469664 324.49983692 347.26226902 C323.9744978 346.73714589 323.44915869 346.21202276 322.9079002 345.67098681 C314.72152271 337.48830522 306.5313169 329.30945617 298.34057805 321.13114055 C295.36901429 318.16401711 292.39795283 315.19639177 289.42723588 312.2284205 C284.28066905 307.08668927 279.13148939 301.94759332 273.9793911 296.81140327 C272.26479206 295.10134318 270.55104789 293.39042547 268.8381958 291.67861557 C266.5114117 289.3535655 264.18159454 287.0316 261.85090637 284.71046448 C261.1639589 284.02265052 260.47701142 283.33483656 259.76924735 282.62617975 C256.19517434 277.95411766 256.19517434 277.95411766 252.05053711 279.8359375 Z M149.43259764 297.29991555 C148.79778109 297.93919354 148.16296454 298.57847153 147.50891113 299.23712158 C146.83482728 299.90808546 146.16074342 300.57904933 145.46623278 301.27034545 C143.19208358 303.53647054 140.92520495 305.80973418 138.65820312 308.08300781 C137.03597371 309.70252928 135.41331866 311.3216245 133.79026794 312.94032288 C129.37039416 317.35104566 124.95691053 321.76811208 120.54477501 326.18657398 C115.93489419 330.80150254 111.32015359 335.41156721 106.70617676 340.0223999 C98.45778462 348.26691434 90.21445938 356.51647437 81.97308856 364.76800677 C74.4990321 372.25099332 67.01975565 379.72872883 59.53662109 387.20263672 C50.85294719 395.87560874 42.17264263 404.55192797 33.49727392 413.23320842 C28.90280446 417.83080026 24.30698423 422.42701993 19.70765686 427.0197525 C15.38253388 431.33910745 11.06231511 435.66330786 6.74586678 439.9913311 C5.15846995 441.58137774 3.56935888 443.16971506 1.97843742 444.75623512 C-0.18866123 446.91788949 -2.34953801 449.08557611 -4.50891113 451.25494385 C-5.14372768 451.88529895 -5.77854423 452.51565405 -6.43259764 453.16511083 C-7.01010661 453.74783529 -7.58761558 454.33055975 -8.18262482 454.93094254 C-8.68201207 455.43065449 -9.18139932 455.93036644 -9.69591951 456.44522119 C-12.95603461 460.33206555 -13.44209506 463.82119424 -13.3125 468.75390625 C-12.63474038 473.62530352 -9.83394448 476.27977522 -6.25 479.375 C-2.32362466 481.33818767 0.75086246 482.02942371 5 481 C11.20165683 477.6922017 16.29424035 473.1378642 21.19447327 468.16629028 C21.85961502 467.5037118 22.52475677 466.84113333 23.21005434 466.15847671 C25.41421817 463.95921392 27.60755835 461.74947823 29.80102539 459.53955078 C31.38789481 457.9518343 32.97542679 456.3647798 34.56356812 454.77833557 C38.85683061 450.48593134 43.14080134 446.18436191 47.42312932 441.88105249 C51.90604697 437.37934003 56.39750127 432.88616108 60.88804626 428.39205933 C68.41873891 420.85311149 75.94417449 413.30895639 83.46557617 405.76074219 C91.20943643 397.9893053 98.95647076 390.22105507 106.70776367 382.45703125 C107.18630545 381.9777013 107.66484723 381.49837136 108.15789027 381.00451626 C110.55883825 378.59965289 112.95984844 376.19485165 115.36088955 373.79008126 C135.25024459 353.8696736 155.12858927 333.93830666 175 314 C173.43477364 310.70504076 171.74200447 308.48484546 169.15625 305.890625 C168.40472656 305.13652344 167.65320313 304.38242187 166.87890625 303.60546875 C166.09386719 302.82816406 165.30882812 302.05085938 164.5 301.25 C163.71496094 300.45722656 162.92992187 299.66445313 162.12109375 298.84765625 C160.99380859 297.72423828 160.99380859 297.72423828 159.84375 296.578125 C159.15474609 295.89137695 158.46574219 295.20462891 157.75585938 294.49707031 C154.00575035 291.2996748 152.37394106 294.38513545 149.43259764 297.29991555 Z " fill="#000000" transform="translate(44,0)"/>
</svg>
