<?xml version="1.0" encoding="UTF-8"?>
<svg version="1.1" xmlns="http://www.w3.org/2000/svg" width="512" height="512">
<path d="M0 0 C0.95197266 -0.020625 1.90394531 -0.04125 2.88476562 -0.0625 C13.40362053 -0.11978444 22.33244139 2.37156903 30.4375 9.25 C38.06514725 17.29400355 39.89952676 25.53852937 39.73046875 36.3125 C39.72622391 37.34439453 39.72197906 38.37628906 39.71760559 39.43945312 C39.70091801 42.70990967 39.66328395 45.97973217 39.625 49.25 C39.60994036 51.47785563 39.5962542 53.705721 39.58398438 55.93359375 C39.5510471 61.3726093 39.5009475 66.81125933 39.4375 72.25 C40.5350486 72.24000725 40.5350486 72.24000725 41.6547699 72.22981262 C48.58321988 72.16945834 55.51163008 72.12390273 62.44027615 72.09456348 C66.00155886 72.07897223 69.56262258 72.05785545 73.1237793 72.02368164 C77.22707099 71.98455615 81.33013614 71.97023683 85.43359375 71.95703125 C86.69956894 71.94154739 87.96554413 71.92606354 89.2698822 71.91011047 C97.87718274 71.90848594 106.48330063 72.39903802 113.0859375 78.6328125 C118.79945827 85.46922174 120.20357086 92.16697885 119.859375 100.97265625 C119.07392438 107.07444397 117.03583946 110.72269784 112.625 114.9375 C111.903125 115.700625 111.18125 116.46375 110.4375 117.25 C110.76823309 119.57520326 110.76823309 119.57520326 111.4375 122.25 C112.39408686 135.37562622 112.39408686 135.37562622 109.3125 140.8125 C107.06946724 144.0180776 107.06946724 144.0180776 108.0625 146.9375 C108.51625 147.700625 108.97 148.46375 109.4375 149.25 C112.34993852 155.33185691 112.09508225 161.64428738 111.4375 168.25 C110.46875 170.765625 110.46875 170.765625 109.3125 172.8125 C107.06946724 176.0180776 107.06946724 176.0180776 108.0625 178.9375 C108.51625 179.700625 108.97 180.46375 109.4375 181.25 C112.56937493 187.79009177 112.61816248 195.76065466 110.78515625 202.73046875 C107.76282778 209.4366654 102.25838666 213.79744539 95.56551933 216.60186958 C91.4472045 217.8561839 87.25434293 217.6740924 82.98266602 217.65405273 C81.95395889 217.66091599 80.92525177 217.66777924 79.8653717 217.67485046 C76.47390819 217.69310655 73.08290826 217.6892796 69.69140625 217.68359375 C67.31835277 217.68815885 64.94530062 217.6934654 62.57225037 217.69947815 C57.59669633 217.70840905 52.62130275 217.70598946 47.64575195 217.69604492 C41.30804669 217.6846052 34.97090276 217.70469047 28.63327122 217.73396206 C23.72835332 217.75243053 18.82356697 217.75200963 13.91862297 217.74632454 C11.58453527 217.74617236 9.25043805 217.75213033 6.91638374 217.76461601 C-9.42769089 217.83967757 -24.63127825 217.22500431 -39.3125 209.1875 C-40.29863281 208.67993164 -40.29863281 208.67993164 -41.3046875 208.16210938 C-43.84701747 206.8317606 -46.21053211 205.56119439 -48.36743164 203.65415955 C-51.35204892 201.74493479 -53.48339627 201.87815666 -57.01171875 201.88110352 C-58.31987549 201.87422012 -59.62803223 201.86733673 -60.97583008 201.86024475 C-61.67221588 201.86342272 -62.36860168 201.86660069 -63.08609009 201.86987495 C-65.27213012 201.87899861 -67.45731489 201.86874866 -69.64331055 201.85325623 C-75.85626938 201.81318642 -82.06916 201.81195589 -88.28222656 201.81420898 C-92.08659178 201.81426008 -95.89049426 201.79509562 -99.69473267 201.76487541 C-101.84651546 201.75404956 -103.99741548 201.76617887 -106.14916992 201.77870178 C-107.45732666 201.76866623 -108.7654834 201.75863068 -110.11328125 201.74829102 C-111.26481689 201.74845718 -112.41635254 201.74862335 -113.6027832 201.74879456 C-117.27722269 201.12954936 -118.24711912 200.11513272 -120.5625 197.25 C-121.06307125 194.87648678 -121.06307125 194.87648678 -121.06370544 192.19554138 C-121.07353958 191.17626556 -121.08337372 190.15698975 -121.09350586 189.10682678 C-121.08383789 187.99448166 -121.07416992 186.88213654 -121.06420898 185.73608398 C-121.07231346 183.97216309 -121.07231346 183.97216309 -121.08058167 182.17260742 C-121.0909439 178.9514342 -121.08336936 175.73092833 -121.06687045 172.50979877 C-121.05301425 169.13861346 -121.05948055 165.767459 -121.06300354 162.39625549 C-121.06570486 156.73616937 -121.05223575 151.07629541 -121.02905273 145.41625977 C-121.00243044 138.87120473 -121.00070015 132.32650413 -121.0124411 125.7814135 C-121.02321668 119.48519633 -121.01703444 113.18910745 -121.00288582 106.89290047 C-120.99712534 104.21311475 -120.9972091 101.53342289 -121.00195122 98.85363579 C-121.00485154 95.11371127 -120.98841242 91.37437216 -120.96655273 87.63452148 C-120.97105438 86.52015213 -120.97555603 85.40578278 -120.98019409 84.25764465 C-120.97028946 83.24118866 -120.96038483 82.22473267 -120.95018005 81.17747498 C-120.94775016 80.29314002 -120.94532026 79.40880507 -120.94281673 78.49767208 C-120.47925585 75.75802706 -119.75842741 74.90629332 -117.5625 73.25 C-114.27116523 72.15288841 -111.89376614 72.14495498 -108.4296875 72.17163086 C-107.16406982 72.17750717 -105.89845215 72.18338348 -104.59448242 72.18943787 C-103.91775482 72.19411009 -103.24102722 72.19878231 -102.54379272 72.20359612 C-98.9393281 72.22284401 -95.33494901 72.20754702 -91.73046875 72.19726562 C-87.15279852 72.18505917 -82.5760586 72.18311029 -77.99853516 72.22583008 C-74.29213282 72.2595015 -70.58756507 72.25358141 -66.88116455 72.22226143 C-65.4779433 72.21737741 -64.07459346 72.22642122 -62.67156982 72.25047112 C-50.80432731 72.44178003 -44.72135495 69.07814236 -36.25537109 61.0667572 C-23.32715401 48.14595216 -20.45846164 30.1804978 -18.1015625 12.86328125 C-17.94429688 11.79464844 -17.78703125 10.72601563 -17.625 9.625 C-17.49222656 8.66335937 -17.35945313 7.70171875 -17.22265625 6.7109375 C-16.48769303 3.97113379 -15.80393265 2.94592736 -13.5625 1.25 C-9.086234 -0.24208867 -4.68957925 0.02469824 0 0 Z M-1.5625 17.25 C-1.73265625 18.47074219 -1.9028125 19.69148438 -2.078125 20.94921875 C-5.85511087 47.06605128 -14.26315454 66.40926989 -35.46875 82.7265625 C-37.13814798 83.94123641 -38.84469951 85.10479967 -40.5625 86.25 C-41.03791026 88.12474856 -41.03791026 88.12474856 -40.99728394 90.3157196 C-41.01730469 91.16659653 -41.03732544 92.01747345 -41.05795288 92.89413452 C-41.06444855 93.82972198 -41.07094421 94.76530945 -41.07763672 95.72924805 C-41.09574402 96.71316025 -41.11385132 97.69707245 -41.13250732 98.71080017 C-41.18668299 101.97779907 -41.21674053 105.24437596 -41.2421875 108.51171875 C-41.25316593 109.62646891 -41.26414436 110.74121906 -41.27545547 111.88974953 C-41.33221251 117.79164956 -41.37002019 123.69333508 -41.39306641 129.59545898 C-41.42066584 135.69199235 -41.51344474 141.78569479 -41.62138176 147.88125896 C-41.69233339 152.56795837 -41.71425211 157.25398158 -41.72296524 161.94117165 C-41.73573144 164.18797653 -41.76701265 166.43475601 -41.81722641 168.681036 C-42.51306432 180.41940945 -42.51306432 180.41940945 -38.59625244 191.04434204 C-35.64774676 193.10917944 -32.98777849 194.15196259 -29.5625 195.25 C-27.86040878 195.97589828 -27.86040878 195.97589828 -26.12393188 196.71646118 C-14.29429378 201.46925228 -1.93704062 200.96151497 10.609375 200.87890625 C12.90863151 200.87973655 15.20788795 200.88220199 17.50714111 200.88621521 C22.2910784 200.88905443 27.07454255 200.87454234 31.85839844 200.84692383 C37.99193601 200.81261191 44.12464152 200.818954 50.25822067 200.8375864 C54.99024426 200.84813757 59.72207322 200.83923953 64.45407867 200.82420158 C66.71712924 200.81902106 68.98020011 200.81949999 71.24324799 200.82574654 C74.39275744 200.8311849 77.54105802 200.81087562 80.69042969 200.78344727 C81.62338867 200.78997314 82.55634766 200.79649902 83.51757812 200.80322266 C88.59772242 200.75287779 88.59772242 200.75287779 93.01153564 198.43540955 C95.1339408 195.18264627 95.04660025 193.03995712 94.4375 189.25 C91.0110753 185.40825109 87.30339725 184.53533135 82.4375 183.25 C80.0454161 180.8579161 80.09173052 180.09861114 80 176.8125 C80.05859375 174.375 80.05859375 174.375 80.4375 172.25 C83.00872861 169.90564451 85.26531245 169.30510002 88.5625 168.25 C92.14763069 167.04581731 92.14763069 167.04581731 94.4375 164.25 C95.10426878 160.79250051 95.10426878 160.79250051 94.4375 157.25 C91.0110753 153.40825109 87.30339725 152.53533135 82.4375 151.25 C80.0454161 148.8579161 80.09173052 148.09861114 80 144.8125 C80.05859375 142.375 80.05859375 142.375 80.4375 140.25 C83.00872861 137.90564451 85.26531245 137.30510002 88.5625 136.25 C92.14763069 135.04581731 92.14763069 135.04581731 94.4375 132.25 C95.10426878 128.79250051 95.10426878 128.79250051 94.4375 125.25 C91.0110753 121.40825109 87.30339725 120.53533135 82.4375 119.25 C80.0454161 116.8579161 80.09173052 116.09861114 80 112.8125 C79.96003906 112.03003906 79.92007813 111.24757813 79.87890625 110.44140625 C80.4375 108.25 80.4375 108.25 82.5546875 106.4921875 C86.81317432 104.65722977 90.79661074 104.83336802 95.37890625 104.75390625 C99.06076124 104.14731711 100.22601193 103.20746849 102.4375 100.25 C103.1875 96.75 103.1875 96.75 102.4375 93.25 C99.74088676 90.44228616 98.07177113 89.34768891 94.19894409 88.75120544 C92.97555328 88.75137161 91.75216248 88.75153778 90.49169922 88.75170898 C89.81303802 88.74619019 89.13437683 88.74067139 88.43515015 88.73498535 C86.9690731 88.72569445 85.50291533 88.72553614 84.0368309 88.73357964 C81.71645624 88.74623408 79.39726673 88.73490077 77.07693481 88.71754456 C72.99111918 88.69087584 68.90559541 88.68524794 64.81970215 88.68664551 C58.27302757 88.68887671 51.72671269 88.67481772 45.1801796 88.63105965 C42.89384337 88.6212086 40.60807156 88.62994267 38.32174683 88.63975525 C36.92266466 88.63361266 35.52358559 88.62670146 34.12451172 88.61889648 C32.9027121 88.61985825 31.68091248 88.62082001 30.42208862 88.62181091 C27.4375 88.25 27.4375 88.25 25.54360962 87.03764343 C24.07725191 84.66778362 24.05915803 83.06148015 24.05273438 80.27880859 C24.04262329 79.26700531 24.03251221 78.25520203 24.02209473 77.21273804 C24.02511597 76.11901886 24.02813721 75.02529968 24.03125 73.8984375 C24.02041382 72.76983307 24.00957764 71.64122864 23.99841309 70.47842407 C23.96407643 66.86055831 23.94855249 63.24300741 23.9375 59.625 C23.92288426 54.8825115 23.88905214 50.14072124 23.84375 45.3984375 C23.84828186 43.77607681 23.84828186 43.77607681 23.85290527 42.12094116 C23.78297019 34.99181142 23.31706406 27.862544 18.71875 22.09375 C17.83703125 21.42859375 17.83703125 21.42859375 16.9375 20.75 C16.05578125 20.05390625 16.05578125 20.05390625 15.15625 19.34375 C11.55662059 17.05307674 8.39522189 17.14292772 4.25 17.1875 C3.16332031 17.19652344 2.07664062 17.20554688 0.95703125 17.21484375 C0.12558594 17.22644531 -0.70585937 17.23804688 -1.5625 17.25 Z M-104.5625 89.25 C-104.5625 120.6 -104.5625 151.95 -104.5625 184.25 C-88.7225 184.25 -72.8825 184.25 -56.5625 184.25 C-56.5625 152.9 -56.5625 121.55 -56.5625 89.25 C-72.4025 89.25 -88.2425 89.25 -104.5625 89.25 Z " fill="white" transform="translate(256.5625,231.75)"/>
<path d="M0 0 C0.969375 -0.01546875 1.93875 -0.0309375 2.9375 -0.046875 C7.461781 1.13036138 10.125282 3.05912934 13 6.75 C15.07221248 10.99720323 16.51418475 15.37484849 17.9375 19.875 C18.33517578 21.05449219 18.73285156 22.23398438 19.14257812 23.44921875 C22 32.09525602 22 32.09525602 22 36.75 C23.45237061 36.7185791 23.45237061 36.7185791 24.93408203 36.68652344 C28.54574645 36.61381488 32.15734691 36.56808944 35.76953125 36.53027344 C37.32921244 36.51022778 38.88881913 36.48298343 40.44824219 36.44824219 C42.69745314 36.39940874 44.9456659 36.37696185 47.1953125 36.359375 C48.23161301 36.32840729 48.23161301 36.32840729 49.28884888 36.29681396 C54.33100955 36.29450666 57.10074927 37.62915123 61 40.75 C64.58398844 44.69238728 64.38764578 48.85099876 64.49609375 53.93359375 C63.31628121 60.63158461 58.74254015 63.99222342 53.49414062 67.703125 C52.69169922 68.25484375 51.88925781 68.8065625 51.0625 69.375 C49.46931194 70.49113175 47.87684439 71.60829279 46.28515625 72.7265625 C45.54281738 73.24508789 44.80047852 73.76361328 44.03564453 74.29785156 C41.61425566 76.02517478 39.29039155 77.85290801 37 79.75 C37.24234375 80.41942627 37.4846875 81.08885254 37.734375 81.77856445 C38.8409333 84.86708572 39.9205046 87.96442113 41 91.0625 C41.3815625 92.11501953 41.763125 93.16753906 42.15625 94.25195312 C44.52483664 101.125084 45.98688219 107.45743558 45 114.75 C43.0412107 118.66757861 40.90671889 121.68812058 37 123.75 C30.95829623 125.15973088 26.469521 124.90549288 21 121.75 C15.76958737 118.00564754 10.73744293 114.01913259 5.78515625 109.9140625 C3.87410983 108.33182687 3.87410983 108.33182687 1 106.75 C-3.48235356 107.90304155 -6.77311023 110.71315041 -10.3125 113.5625 C-24.41679769 124.61212359 -24.41679769 124.61212359 -32 124.75 C-36.41704223 124.0645969 -39.00583649 123.12209159 -41.875 119.75 C-45.66263901 114.40274493 -45.57948531 110.2066968 -45 103.75 C-43.96067982 99.40760722 -42.52073153 95.25735573 -41 91.0625 C-40.6184375 89.96744141 -40.236875 88.87238281 -39.84375 87.74414062 C-38.91084765 85.07370766 -37.96287179 82.40974125 -37 79.75 C-41.4673683 76.08974431 -45.92859518 72.462464 -50.67578125 69.16796875 C-51.29888184 68.73468262 -51.92198242 68.30139648 -52.56396484 67.85498047 C-53.79147652 67.00816697 -55.02472873 66.16960144 -56.26416016 65.34033203 C-59.84087804 62.87081354 -62.23835892 60.75372974 -64 56.75 C-64.84738066 51.50540081 -64.62512938 47.04656464 -62.3125 42.25 C-58.9060922 38.56739698 -56.47788899 36.88993451 -51.40307617 36.40942383 C-50.03294854 36.40989401 -48.66275756 36.42655891 -47.29296875 36.45703125 C-46.20487663 36.46339851 -46.20487663 36.46339851 -45.09480286 36.46989441 C-42.79198109 36.48660457 -40.49005447 36.5242404 -38.1875 36.5625 C-36.6204554 36.57755684 -35.053397 36.5912435 -33.48632812 36.60351562 C-29.65721043 36.63648269 -25.82875666 36.68821008 -22 36.75 C-21.86803223 35.70851807 -21.73606445 34.66703613 -21.60009766 33.59399414 C-20.76374496 28.23664133 -19.1063845 23.31305146 -17.375 18.1875 C-16.89740234 16.66479492 -16.89740234 16.66479492 -16.41015625 15.11132812 C-13.61693832 6.85569754 -9.66898536 -0.15429232 0 0 Z M-1 23.75 C-1.25168945 24.55743652 -1.50337891 25.36487305 -1.76269531 26.19677734 C-2.70484765 29.19378898 -3.66049726 32.18605258 -4.62548828 35.17578125 C-5.04012599 36.46994366 -5.44935797 37.76585111 -5.85302734 39.06347656 C-6.4345976 40.9296455 -7.03735231 42.78917084 -7.640625 44.6484375 C-8.17478027 46.32945557 -8.17478027 46.32945557 -8.71972656 48.04443359 C-10 50.75 -10 50.75 -11.75390625 52.10546875 C-14.64746586 52.93579455 -17.28629967 53.07885754 -20.296875 53.1640625 C-21.50214844 53.20273438 -22.70742187 53.24140625 -23.94921875 53.28125 C-25.83060547 53.32765625 -25.83060547 53.32765625 -27.75 53.375 C-29.65458984 53.43300781 -29.65458984 53.43300781 -31.59765625 53.4921875 C-34.7316257 53.58644222 -37.86558949 53.67205166 -41 53.75 C-36.54615111 58.48813711 -31.56227324 62.08250029 -26.26367188 65.8203125 C-25.61591797 66.284375 -24.96816406 66.7484375 -24.30078125 67.2265625 C-23.71466064 67.63986816 -23.12854004 68.05317383 -22.5246582 68.47900391 C-19.90353753 70.66404061 -19.03996996 72.40374334 -18.65234375 75.76171875 C-18.804214 80.96498509 -20.80783886 85.71963525 -22.5625 90.5625 C-23.23715483 92.44162335 -23.90547307 94.32303788 -24.56640625 96.20703125 C-24.86490479 97.03178955 -25.16340332 97.85654785 -25.47094727 98.70629883 C-26.25074622 100.7960857 -26.25074622 100.7960857 -25 102.75 C-23.60587891 101.75419922 -23.60587891 101.75419922 -22.18359375 100.73828125 C-14.74609375 95.42578125 -14.74609375 95.42578125 -12.85888672 94.10009766 C-11.62824492 93.20629031 -10.42511976 92.27321121 -9.25439453 91.30224609 C-5.7234163 88.45921193 -2.86914632 86.85356515 1.88476562 87.17675781 C6.31246634 88.37669332 9.70362536 91.32336404 13.25 94.125 C14.81600981 95.32253691 16.38366022 96.51793218 17.953125 97.7109375 C18.63536133 98.24509277 19.31759766 98.77924805 20.02050781 99.32958984 C21.94554721 100.7109267 23.85398927 101.75496596 26 102.75 C24.48276295 96.91093622 22.83045683 91.18762209 20.8125 85.5 C19.33344933 81.08569047 18.23399993 77.44175045 19 72.75 C22.24137594 67.73054645 26.82461591 64.84362863 31.6875 61.5625 C33.23573283 60.51041409 34.78144438 59.45460525 36.32421875 58.39453125 C37.00572998 57.93409424 37.68724121 57.47365723 38.3894043 56.99926758 C40.1425505 55.82544002 40.1425505 55.82544002 41 53.75 C40.20303711 53.73018066 39.40607422 53.71036133 38.58496094 53.68994141 C34.97297528 53.59466752 31.36156601 53.48499693 27.75 53.375 C26.49574219 53.3440625 25.24148438 53.313125 23.94921875 53.28125 C22.74394531 53.24257812 21.53867187 53.20390625 20.296875 53.1640625 C19.18666992 53.1326416 18.07646484 53.1012207 16.93261719 53.06884766 C13.97242174 52.74700156 12.34949327 52.56575538 10 50.75 C8.71972656 48.04443359 8.71972656 48.04443359 7.640625 44.6484375 C7.05087891 42.83085938 7.05087891 42.83085938 6.44921875 40.9765625 C6.04915201 39.69281024 5.64941663 38.40895468 5.25 37.125 C4.83601956 35.83288905 4.42067037 34.54121578 4.00390625 33.25 C2.98903782 30.08738675 1.98843195 26.92095552 1 23.75 C0.34 23.75 -0.32 23.75 -1 23.75 Z " fill="white" transform="translate(256,71.25)"/>
<path d="M0 0 C0.84046875 -0.04898438 1.6809375 -0.09796875 2.546875 -0.1484375 C6.37565383 0.59297343 8.77862677 2.4677114 11.25 5.375 C12.6628697 7.92612915 13.5957013 10.54565425 14.5 13.3125 C14.86351562 14.34793945 14.86351562 14.34793945 15.234375 15.40429688 C15.92645531 17.3883858 16.5923876 19.37925834 17.25 21.375 C17.83007812 23.10943359 17.83007812 23.10943359 18.421875 24.87890625 C18.83179688 26.11447266 18.83179688 26.11447266 19.25 27.375 C19.91531738 27.38958252 20.58063477 27.40416504 21.26611328 27.41918945 C24.30297114 27.49401365 27.33877091 27.59056016 30.375 27.6875 C31.42171875 27.71005859 32.4684375 27.73261719 33.546875 27.75585938 C40.47886035 27.99716266 45.17868216 28.78862708 50.625 33.375 C53.14761535 38.03213603 53.28422198 42.21117337 52.25 47.375 C48.29894883 55.06987939 39.29966011 59.79537118 32.25 64.375 C33.24709638 69.13038271 34.33410866 73.70443159 35.875 78.3125 C37.85302199 84.83490072 38.60872694 90.65754612 35.5 96.875 C32.87415456 99.79260605 30.89979104 101.04268915 27.05859375 101.81640625 C19.14336559 102.2206436 14.44906885 98.98976002 8.25 94.375 C7.43402344 93.78074219 6.61804688 93.18648438 5.77734375 92.57421875 C3.91494197 91.19794653 2.07388172 89.80170404 0.25 88.375 C-0.27207031 88.72691406 -0.79414063 89.07882812 -1.33203125 89.44140625 C-2.90088512 90.49371979 -4.47567146 91.53721605 -6.0546875 92.57421875 C-7.87597701 93.79105131 -9.67287166 95.04508508 -11.4453125 96.33203125 C-16.71906219 100.02065105 -20.88102099 102.4831205 -27.44921875 102.01171875 C-31.43746586 100.9080103 -34.1122463 98.48867868 -36.75 95.375 C-39.52879127 89.81741745 -37.70443738 83.83048161 -35.91064453 78.26806641 C-35.43443278 76.85679473 -34.94481726 75.44996422 -34.44091797 74.04833984 C-32.52212594 68.68422953 -32.52212594 68.68422953 -33.75 63.375 C-36.00143843 61.51093713 -38.12276606 59.9442761 -40.5625 58.375 C-45.66255313 55.03412589 -49.93657286 52.00185428 -52.75 46.375 C-53.31266426 41.76299786 -53.15400598 38.24765291 -51.1875 34 C-47.62428243 30.16268877 -44.17708866 28.58641054 -39.02563477 28.13769531 C-35.94911021 28.08042961 -32.88859334 28.11303219 -29.8125 28.1875 C-28.21438477 28.20780273 -28.21438477 28.20780273 -26.58398438 28.22851562 C-23.97212412 28.26365276 -21.36133366 28.31284816 -18.75 28.375 C-18.57368042 27.52772339 -18.57368042 27.52772339 -18.39379883 26.66333008 C-17.32930977 21.69276479 -16.08271829 16.8802565 -14.4375 12.0625 C-14.04949219 10.89074219 -13.66148437 9.71898437 -13.26171875 8.51171875 C-10.47320344 2.72572961 -6.2339369 0.24557933 0 0 Z M-0.75 25.375 C-1.07613281 26.49519531 -1.40226562 27.61539062 -1.73828125 28.76953125 C-2.17918517 30.24233797 -2.62061921 31.71498607 -3.0625 33.1875 C-3.27583984 33.92548828 -3.48917969 34.66347656 -3.70898438 35.42382812 C-3.92490234 36.13603516 -4.14082031 36.84824219 -4.36328125 37.58203125 C-4.55704346 38.2366333 -4.75080566 38.89123535 -4.95043945 39.56567383 C-5.92044347 41.76069667 -6.8417968 42.91410078 -8.75 44.375 C-10.8347168 44.80737305 -10.8347168 44.80737305 -13.19921875 44.88671875 C-14.47055664 44.93989258 -14.47055664 44.93989258 -15.76757812 44.99414062 C-16.64865234 45.01669922 -17.52972656 45.03925781 -18.4375 45.0625 C-19.77651367 45.11374023 -19.77651367 45.11374023 -21.14257812 45.16601562 C-23.34492671 45.24845648 -25.54687938 45.31761551 -27.75 45.375 C-24.66617029 48.59028959 -21.63410888 51.21696372 -17.9375 53.6875 C-13.85639669 56.85188293 -13.85639669 56.85188293 -13 61.0625 C-13.65327393 66.5826647 -15.25405956 72.03235558 -16.75 77.375 C-13.21602619 76.11548684 -10.71191376 74.68668527 -7.875 72.25 C-5.22531794 70.25657067 -3.7063052 69.36345798 -0.4375 68.5 C4.60550165 69.69664446 7.87389061 72.43067033 11.89453125 75.625 C14.02850164 77.57379101 14.02850164 77.57379101 16.25 77.375 C15.93950274 75.93706608 15.6265224 74.4996682 15.3125 73.0625 C15.13847656 72.26199219 14.96445312 71.46148437 14.78515625 70.63671875 C14.25113841 68.229599 14.25113841 68.229599 13.25 65.375 C12.79320061 61.2638055 12.60923357 59.20179539 15.1875 55.875 C18.55947601 53.12236652 21.97542617 50.44074871 25.45703125 47.828125 C26.04871094 47.34859375 26.64039063 46.8690625 27.25 46.375 C27.25 46.045 27.25 45.715 27.25 45.375 C25.37054688 45.33632813 25.37054688 45.33632813 23.453125 45.296875 C21.80204877 45.24058831 20.15100845 45.1832411 18.5 45.125 C17.675 45.11082031 16.85 45.09664063 16 45.08203125 C12.35540065 44.9350716 9.94311603 44.82507534 6.84375 42.8125 C4.74647688 39.60490582 3.59380216 36.26412793 2.5 32.625 C2.27957031 31.92761719 2.05914062 31.23023438 1.83203125 30.51171875 C1.29364258 28.80291992 0.77028943 27.08939632 0.25 25.375 C-0.08 25.375 -0.41 25.375 -0.75 25.375 Z " fill="white" transform="translate(443.75,234.625)"/>
<path d="M0 0 C0.84046875 -0.04898438 1.6809375 -0.09796875 2.546875 -0.1484375 C6.37565383 0.59297343 8.77862677 2.4677114 11.25 5.375 C12.6628697 7.92612915 13.5957013 10.54565425 14.5 13.3125 C14.86351563 14.34793945 14.86351563 14.34793945 15.234375 15.40429688 C15.92645531 17.3883858 16.5923876 19.37925834 17.25 21.375 C17.83007812 23.10943359 17.83007812 23.10943359 18.421875 24.87890625 C18.83179687 26.11447266 18.83179687 26.11447266 19.25 27.375 C19.91531738 27.38958252 20.58063477 27.40416504 21.26611328 27.41918945 C24.30297114 27.49401365 27.33877091 27.59056016 30.375 27.6875 C31.42171875 27.71005859 32.4684375 27.73261719 33.546875 27.75585938 C40.47886035 27.99716266 45.17868216 28.78862708 50.625 33.375 C53.14761535 38.03213603 53.28422198 42.21117337 52.25 47.375 C48.29894883 55.06987939 39.29966011 59.79537118 32.25 64.375 C33.24709638 69.13038271 34.33410866 73.70443159 35.875 78.3125 C37.85302199 84.83490072 38.60872694 90.65754612 35.5 96.875 C32.87415456 99.79260605 30.89979104 101.04268915 27.05859375 101.81640625 C19.14336559 102.2206436 14.44906885 98.98976002 8.25 94.375 C7.43402344 93.78074219 6.61804688 93.18648438 5.77734375 92.57421875 C3.91494197 91.19794653 2.07388172 89.80170404 0.25 88.375 C-0.27207031 88.72691406 -0.79414062 89.07882812 -1.33203125 89.44140625 C-2.90088512 90.49371979 -4.47567146 91.53721605 -6.0546875 92.57421875 C-7.87597701 93.79105131 -9.67287166 95.04508508 -11.4453125 96.33203125 C-16.71906219 100.02065105 -20.88102099 102.4831205 -27.44921875 102.01171875 C-31.43746586 100.9080103 -34.1122463 98.48867868 -36.75 95.375 C-39.52879127 89.81741745 -37.70443738 83.83048161 -35.91064453 78.26806641 C-35.43443278 76.85679473 -34.94481726 75.44996422 -34.44091797 74.04833984 C-32.52212594 68.68422953 -32.52212594 68.68422953 -33.75 63.375 C-36.00143843 61.51093713 -38.12276606 59.9442761 -40.5625 58.375 C-45.66255313 55.03412589 -49.93657286 52.00185428 -52.75 46.375 C-53.31266426 41.76299786 -53.15400598 38.24765291 -51.1875 34 C-47.62428243 30.16268877 -44.17708866 28.58641054 -39.02563477 28.13769531 C-35.94911021 28.08042961 -32.88859334 28.11303219 -29.8125 28.1875 C-28.21438477 28.20780273 -28.21438477 28.20780273 -26.58398438 28.22851562 C-23.97212412 28.26365276 -21.36133366 28.31284816 -18.75 28.375 C-18.57368042 27.52772339 -18.57368042 27.52772339 -18.39379883 26.66333008 C-17.32930977 21.69276479 -16.08271829 16.8802565 -14.4375 12.0625 C-14.04949219 10.89074219 -13.66148438 9.71898437 -13.26171875 8.51171875 C-10.47320344 2.72572961 -6.2339369 0.24557933 0 0 Z M-0.75 25.375 C-1.07613281 26.49519531 -1.40226562 27.61539062 -1.73828125 28.76953125 C-2.17918517 30.24233797 -2.62061921 31.71498607 -3.0625 33.1875 C-3.27583984 33.92548828 -3.48917969 34.66347656 -3.70898438 35.42382812 C-3.92490234 36.13603516 -4.14082031 36.84824219 -4.36328125 37.58203125 C-4.55704346 38.2366333 -4.75080566 38.89123535 -4.95043945 39.56567383 C-5.92044347 41.76069667 -6.8417968 42.91410078 -8.75 44.375 C-10.8347168 44.80737305 -10.8347168 44.80737305 -13.19921875 44.88671875 C-14.47055664 44.93989258 -14.47055664 44.93989258 -15.76757812 44.99414062 C-16.64865234 45.01669922 -17.52972656 45.03925781 -18.4375 45.0625 C-19.77651367 45.11374023 -19.77651367 45.11374023 -21.14257812 45.16601562 C-23.34492671 45.24845648 -25.54687938 45.31761551 -27.75 45.375 C-24.66617029 48.59028959 -21.63410888 51.21696372 -17.9375 53.6875 C-13.85639669 56.85188293 -13.85639669 56.85188293 -13 61.0625 C-13.65327393 66.5826647 -15.25405956 72.03235558 -16.75 77.375 C-13.21602619 76.11548684 -10.71191376 74.68668527 -7.875 72.25 C-5.22531794 70.25657067 -3.7063052 69.36345798 -0.4375 68.5 C4.60550165 69.69664446 7.87389061 72.43067033 11.89453125 75.625 C14.02850164 77.57379101 14.02850164 77.57379101 16.25 77.375 C15.93950274 75.93706608 15.6265224 74.4996682 15.3125 73.0625 C15.13847656 72.26199219 14.96445313 71.46148437 14.78515625 70.63671875 C14.25113841 68.229599 14.25113841 68.229599 13.25 65.375 C12.79320061 61.2638055 12.60923357 59.20179539 15.1875 55.875 C18.55947601 53.12236652 21.97542617 50.44074871 25.45703125 47.828125 C26.04871094 47.34859375 26.64039063 46.8690625 27.25 46.375 C27.25 46.045 27.25 45.715 27.25 45.375 C25.37054688 45.33632813 25.37054688 45.33632813 23.453125 45.296875 C21.80204877 45.24058831 20.15100845 45.1832411 18.5 45.125 C17.675 45.11082031 16.85 45.09664063 16 45.08203125 C12.35540065 44.9350716 9.94311603 44.82507534 6.84375 42.8125 C4.74647688 39.60490582 3.59380216 36.26412793 2.5 32.625 C2.27957031 31.92761719 2.05914062 31.23023438 1.83203125 30.51171875 C1.29364258 28.80291992 0.77028943 27.08939632 0.25 25.375 C-0.08 25.375 -0.41 25.375 -0.75 25.375 Z " fill="white" transform="translate(67.75,234.625)"/>
<path d="M0 0 C0.84046875 -0.04898438 1.6809375 -0.09796875 2.546875 -0.1484375 C6.37565383 0.59297343 8.77862677 2.4677114 11.25 5.375 C12.6628697 7.92612915 13.5957013 10.54565425 14.5 13.3125 C14.86351562 14.34793945 14.86351562 14.34793945 15.234375 15.40429688 C15.92645531 17.3883858 16.5923876 19.37925834 17.25 21.375 C17.83007812 23.10943359 17.83007812 23.10943359 18.421875 24.87890625 C18.83179688 26.11447266 18.83179688 26.11447266 19.25 27.375 C19.91531738 27.38958252 20.58063477 27.40416504 21.26611328 27.41918945 C24.30297114 27.49401365 27.33877091 27.59056016 30.375 27.6875 C31.42171875 27.71005859 32.4684375 27.73261719 33.546875 27.75585938 C40.47886035 27.99716266 45.17868216 28.78862708 50.625 33.375 C53.14761535 38.03213603 53.28422198 42.21117337 52.25 47.375 C48.29894883 55.06987939 39.29966011 59.79537118 32.25 64.375 C33.24709638 69.13038271 34.33410866 73.70443159 35.875 78.3125 C37.85302199 84.83490072 38.60872694 90.65754612 35.5 96.875 C32.87415456 99.79260605 30.89979104 101.04268915 27.05859375 101.81640625 C19.14336559 102.2206436 14.44906885 98.98976002 8.25 94.375 C7.43402344 93.78074219 6.61804688 93.18648438 5.77734375 92.57421875 C3.91494197 91.19794653 2.07388172 89.80170404 0.25 88.375 C-1.39667789 89.41533108 -3.04228661 90.45735447 -4.6875 91.5 C-5.69554687 92.13292969 -6.70359375 92.76585937 -7.7421875 93.41796875 C-9.57815505 94.61253985 -11.38533072 95.85514338 -13.1328125 97.17578125 C-17.82890823 100.70206102 -21.42502115 102.32952293 -27.37890625 101.9765625 C-31.43089008 100.94854683 -34.08935299 98.51570258 -36.75 95.375 C-39.52879127 89.81741745 -37.70443738 83.83048161 -35.91064453 78.26806641 C-35.43443278 76.85679473 -34.94481726 75.44996422 -34.44091797 74.04833984 C-32.52212594 68.68422953 -32.52212594 68.68422953 -33.75 63.375 C-36.00143843 61.51093713 -38.12276606 59.9442761 -40.5625 58.375 C-45.66255313 55.03412589 -49.93657286 52.00185428 -52.75 46.375 C-53.31266426 41.76299786 -53.15400598 38.24765291 -51.1875 34 C-47.62428243 30.16268877 -44.17708866 28.58641054 -39.02563477 28.13769531 C-35.94911021 28.08042961 -32.88859334 28.11303219 -29.8125 28.1875 C-28.21438477 28.20780273 -28.21438477 28.20780273 -26.58398438 28.22851562 C-23.97212412 28.26365276 -21.36133366 28.31284816 -18.75 28.375 C-18.57368042 27.52772339 -18.57368042 27.52772339 -18.39379883 26.66333008 C-17.32930977 21.69276479 -16.08271829 16.8802565 -14.4375 12.0625 C-14.04949219 10.89074219 -13.66148437 9.71898437 -13.26171875 8.51171875 C-10.47320344 2.72572961 -6.2339369 0.24557933 0 0 Z M-0.75 25.375 C-1.07613281 26.49519531 -1.40226562 27.61539063 -1.73828125 28.76953125 C-2.17918517 30.24233797 -2.62061921 31.71498607 -3.0625 33.1875 C-3.27583984 33.92548828 -3.48917969 34.66347656 -3.70898438 35.42382812 C-3.92490234 36.13603516 -4.14082031 36.84824219 -4.36328125 37.58203125 C-4.55704346 38.2366333 -4.75080566 38.89123535 -4.95043945 39.56567383 C-5.92044347 41.76069667 -6.8417968 42.91410078 -8.75 44.375 C-10.8347168 44.80737305 -10.8347168 44.80737305 -13.19921875 44.88671875 C-14.47055664 44.93989258 -14.47055664 44.93989258 -15.76757812 44.99414062 C-16.64865234 45.01669922 -17.52972656 45.03925781 -18.4375 45.0625 C-19.77651367 45.11374023 -19.77651367 45.11374023 -21.14257812 45.16601562 C-23.34492671 45.24845648 -25.54687938 45.31761551 -27.75 45.375 C-24.66617029 48.59028959 -21.63410888 51.21696372 -17.9375 53.6875 C-13.85639669 56.85188293 -13.85639669 56.85188293 -13 61.0625 C-13.65327393 66.5826647 -15.25405956 72.03235558 -16.75 77.375 C-13.21602619 76.11548684 -10.71191376 74.68668527 -7.875 72.25 C-5.22531794 70.25657067 -3.7063052 69.36345798 -0.4375 68.5 C4.60550165 69.69664446 7.87389061 72.43067033 11.89453125 75.625 C14.02850164 77.57379101 14.02850164 77.57379101 16.25 77.375 C15.93950274 75.93706608 15.6265224 74.4996682 15.3125 73.0625 C15.13847656 72.26199219 14.96445312 71.46148437 14.78515625 70.63671875 C14.25113841 68.229599 14.25113841 68.229599 13.25 65.375 C12.79320061 61.2638055 12.60923357 59.20179539 15.1875 55.875 C18.55947601 53.12236652 21.97542617 50.44074871 25.45703125 47.828125 C26.04871094 47.34859375 26.64039063 46.8690625 27.25 46.375 C27.25 46.045 27.25 45.715 27.25 45.375 C25.37054688 45.33632812 25.37054688 45.33632812 23.453125 45.296875 C21.80204877 45.24058831 20.15100845 45.1832411 18.5 45.125 C17.675 45.11082031 16.85 45.09664062 16 45.08203125 C12.35540065 44.9350716 9.94311603 44.82507534 6.84375 42.8125 C4.74647688 39.60490582 3.59380216 36.26412793 2.5 32.625 C2.27957031 31.92761719 2.05914062 31.23023438 1.83203125 30.51171875 C1.29364258 28.80291992 0.77028943 27.08939632 0.25 25.375 C-0.08 25.375 -0.41 25.375 -0.75 25.375 Z " fill="white" transform="translate(379.75,130.625)"/>
<path d="M0 0 C4.30478067 1.83351769 6.17919508 3.87639035 8.125 8 C8.77943311 9.65533081 9.40163423 11.32358681 10 13 C10.37382812 14.03898438 10.74765625 15.07796875 11.1328125 16.1484375 C14 24.4291958 14 24.4291958 14 28 C14.66008057 27.98428955 15.32016113 27.9685791 16.00024414 27.95239258 C19.02090727 27.88963312 22.0414327 27.85088017 25.0625 27.8125 C26.10083984 27.78736328 27.13917969 27.76222656 28.20898438 27.73632812 C34.28006244 27.67850833 38.68105298 27.97592125 44 31 C47.76112486 35.05044216 48.45423926 38.34250915 48.53125 43.65625 C47.09648172 49.98611005 42.40917027 53.62610536 37.4375 57.25 C36.86064453 57.683125 36.28378906 58.11625 35.68945312 58.5625 C33.16851461 60.44666166 30.61898696 62.25400869 28 64 C28.44119151 68.74280875 29.57154622 72.9066864 31.0625 77.4375 C32.99719985 83.58758602 34.47298451 88.58887798 31.8125 94.75 C29.13810399 98.06993988 27.15808355 100.50828476 22.83984375 101.4921875 C14.97783813 102.11516734 10.14688341 98.46317187 4 94 C2.27518635 92.84762451 0.54637105 91.70120215 -1.1875 90.5625 C-2.45901735 89.7093519 -3.72997252 88.8553644 -5 88 C-5.50450684 88.35827881 -6.00901367 88.71655762 -6.52880859 89.08569336 C-8.80986028 90.70439405 -11.09240912 92.3209706 -13.375 93.9375 C-14.1690625 94.50146484 -14.963125 95.06542969 -15.78125 95.64648438 C-16.54179688 96.18466797 -17.30234375 96.72285156 -18.0859375 97.27734375 C-18.7876709 97.77484131 -19.4894043 98.27233887 -20.21240234 98.78491211 C-24.56552018 101.74386696 -28.86686367 101.57472232 -34 101 C-38.14379091 98.92810455 -40.25933923 97.24627559 -42 93 C-43.4573568 85.0842515 -40.61480248 77.81685441 -38.09375 70.44140625 C-36.84855446 67.1253264 -36.84855446 67.1253264 -37 64 C-39.35895828 62.10986613 -41.69639307 60.38608733 -44.1875 58.6875 C-56.16637215 50.49142958 -56.16637215 50.49142958 -57.6640625 44.21875 C-57.54552795 35.96874564 -57.54552795 35.96874564 -54.8125 32.4375 C-50.58478282 28.77347844 -47.01296511 27.77138431 -41.48046875 27.5859375 C-39.9480957 27.52792969 -39.9480957 27.52792969 -38.38476562 27.46875 C-37.32966797 27.4378125 -36.27457031 27.406875 -35.1875 27.375 C-34.11306641 27.33632812 -33.03863281 27.29765625 -31.93164062 27.2578125 C-29.28792912 27.16381387 -26.6442195 27.07815427 -24 27 C-23.72119995 26.13834229 -23.72119995 26.13834229 -23.43676758 25.25927734 C-22.5760191 22.62636843 -21.69448472 20.00086756 -20.8125 17.375 C-20.52052734 16.47136719 -20.22855469 15.56773437 -19.92773438 14.63671875 C-16.23293869 3.75097662 -11.93350715 -1.24842844 0 0 Z M-5 25 C-5.39832031 26.20398438 -5.79664063 27.40796875 -6.20703125 28.6484375 C-6.7416454 30.22414236 -7.27683146 31.79965327 -7.8125 33.375 C-8.07353516 34.1690625 -8.33457031 34.963125 -8.60351562 35.78125 C-8.99506836 36.92207031 -8.99506836 36.92207031 -9.39453125 38.0859375 C-9.63018799 38.7876709 -9.86584473 39.4894043 -10.10864258 40.21240234 C-11 42 -11 42 -14 44 C-15.99291992 44.31884766 -15.99291992 44.31884766 -18.23046875 44.4140625 C-19.43413086 44.47207031 -19.43413086 44.47207031 -20.66210938 44.53125 C-21.49548828 44.5621875 -22.32886719 44.593125 -23.1875 44.625 C-24.03248047 44.66367188 -24.87746094 44.70234375 -25.74804688 44.7421875 C-27.83167524 44.83636279 -29.91580753 44.91926675 -32 45 C-29.06893178 48.01818039 -26.17741699 50.7477547 -22.75 53.1875 C-19.10948905 55.7810219 -19.10948905 55.7810219 -18 58 C-17.57241489 63.23791755 -18.52107222 67.15765421 -20.34375 71.984375 C-21.15479302 74.12214137 -21.15479302 74.12214137 -21 77 C-17.95209169 75.58268824 -15.39112099 73.86309785 -12.6875 71.875 C-9.86015257 70.01768559 -7.93610619 68.98343494 -4.625 68.125 C0.37435928 69.3317419 3.6541987 72.07974959 7.64453125 75.25 C9.77850164 77.19879101 9.77850164 77.19879101 12 77 C11.7834375 76.2265625 11.566875 75.453125 11.34375 74.65625 C10.48693221 71.4511168 9.72643219 68.23701376 9 65 C8.80664062 64.25363281 8.61328125 63.50726563 8.4140625 62.73828125 C8.125 60.8125 8.125 60.8125 9 57 C12.37874133 53.58203613 16.1338894 50.83663976 20 48 C21.01354945 47.01373557 22.01672685 46.01645163 23 45 C22.16021606 44.97812622 22.16021606 44.97812622 21.3034668 44.95581055 C18.76411863 44.88128648 16.22607922 44.78464419 13.6875 44.6875 C12.36588867 44.65366211 12.36588867 44.65366211 11.01757812 44.61914062 C10.17001953 44.58369141 9.32246094 44.54824219 8.44921875 44.51171875 C7.27879028 44.47244263 7.27879028 44.47244263 6.0847168 44.43237305 C3.46999202 43.89007564 2.61381126 43.10277199 1 41 C0.20043945 39.19067383 0.20043945 39.19067383 -0.38671875 37.20703125 C-0.60263672 36.49482422 -0.81855469 35.78261719 -1.04101562 35.04882812 C-1.25435547 34.31083984 -1.46769531 33.57285156 -1.6875 32.8125 C-1.91244141 32.06291016 -2.13738281 31.31332031 -2.36914062 30.54101562 C-2.92130633 28.69654721 -3.46180221 26.8485924 -4 25 C-4.33 25 -4.66 25 -5 25 Z " fill="white" transform="translate(137,131)"/>
</svg>
